<?xml version="1.0" encoding="utf-8"?>
<!-- Generator: Adobe Illustrator 17.0.0, SVG Export Plug-In . SVG Version: 6.00 Build 0)  -->
<!DOCTYPE svg PUBLIC "-//W3C//DTD SVG 1.1//EN" "http://www.w3.org/Graphics/SVG/1.1/DTD/svg11.dtd">
<svg version="1.1" id="Livello_1" xmlns="http://www.w3.org/2000/svg" xmlns:xlink="http://www.w3.org/1999/xlink" x="0px" y="0px"
	 width="1190.55px" height="841.89px" viewBox="0 0 1190.55 841.89" enable-background="new 0 0 1190.55 841.89"
	 xml:space="preserve">
<g>
	<path fill="#B39C77" stroke="#B39C77" stroke-miterlimit="10" d="M826.51,416.96c-0.351,0.175-0.259,0.508-0.249,0.783
		c0.141,3.674-0.289,7.324-0.553,10.975c-0.265,3.668-0.726,7.324-1.181,10.979c-0.579,4.645-1.26,9.268-2.074,13.876
		c-1.206,6.82-2.663,13.585-4.432,20.28c-2.186,8.276-4.754,16.427-7.733,24.46c-2.459,6.631-5.125,13.16-8.158,19.548
		c-1.85,3.897-3.706,7.782-5.755,11.584c-2.417,4.485-4.885,8.935-7.5,13.308c-2.462,4.116-5.123,8.098-7.773,12.09
		c-1.46,2.199-3.172,4.214-4.606,6.416c-1.536,2.357-3.46,4.392-5.116,6.637c-3.214,4.357-6.856,8.341-10.378,12.436
		c-2.642,3.073-5.339,6.103-8.27,8.869c-3.355,3.166-6.558,6.492-10.055,9.527c-2.491,2.162-5.143,4.154-7.504,6.441
		c-2.42,2.344-5.315,4.037-7.804,6.247c-2.606,2.314-5.669,3.973-8.376,6.113c-3.16,2.498-6.749,4.313-9.98,6.656
		c-3.164,2.294-6.717,3.866-9.988,5.938c-3.719,2.356-7.777,4.064-11.634,6.144c-4.462,2.406-9.21,4.11-13.776,6.24
		c-5.8,2.706-11.962,4.349-17.911,6.591c-3.992,1.504-8.09,2.495-12.158,3.64c-3.566,1.005-7.252,1.583-10.821,2.579
		c-2.92,0.815-5.872,1.374-8.854,1.83c-2.682,0.41-5.346,0.933-8.052,1.207c-2.451,0.249-4.878,0.742-7.331,0.947
		c-2.09,0.175-4.177,0.409-6.269,0.544c-5.347,0.347-10.706,0.432-16.061,0.601c-4.603,0.144-9.184-0.186-13.778-0.135
		c-3.599,0.04-7.215-0.344-10.803-0.731c-5.691-0.614-11.385-1.194-17.032-2.206c-2.914-0.523-5.878-0.864-8.734-1.614
		c-6.868-1.802-13.887-3.023-20.63-5.298c-6.622-2.234-13.365-4.176-19.768-6.968c-4.08-1.779-8.266-3.335-12.241-5.359
		c-4.579-2.331-9.248-4.504-13.7-7.056c-3.508-2.012-7.15-3.829-10.484-6.112c-2.958-2.026-6.134-3.715-8.992-5.863
		c-2.969-2.231-6.198-4.119-9.029-6.491c-2.693-2.256-5.708-4.098-8.259-6.488c-2.325-2.178-5.038-3.907-7.222-6.188
		c-2.497-2.608-5.476-4.682-7.829-7.433c-0.956-1.117-2.175-2-3.214-3.036c-4.715-4.7-9.116-9.699-13.447-14.749
		c-1.633-1.905-3.412-3.73-4.798-5.812c-1.827-2.743-3.996-5.214-5.935-7.865c-2.563-3.503-5.053-7.065-7.446-10.67
		c-2.716-4.091-5.304-8.288-7.665-12.61c-2.225-4.073-4.632-8.055-6.692-12.209c-3.124-6.301-6.126-12.67-8.72-19.213
		c-2.505-6.319-4.892-12.681-6.893-19.189c-1.238-4.027-2.47-8.053-3.587-12.115c-1.649-5.993-3.011-12.056-4.172-18.155
		c-0.96-5.041-1.773-10.113-2.4-15.218c-0.603-4.908-1.137-9.814-1.506-14.745c-0.219-2.938-0.308-5.882-0.522-8.814
		c-0.427-5.838-0.214-11.676-0.17-17.509c0.038-4.96,0.385-9.924,0.747-14.875c0.3-4.09,0.691-8.183,1.286-12.239
		c0.521-3.548,1.061-7.097,1.651-10.637c1.284-7.704,2.924-15.322,4.922-22.866c1.249-4.717,2.645-9.391,4.135-14.042
		c1.504-4.694,3.119-9.351,4.907-13.933c1.442-3.693,2.994-7.356,4.626-10.983c2.185-4.857,4.401-9.698,6.902-14.394
		c3.006-5.643,6.119-11.225,9.475-16.681c3.895-6.333,8.08-12.453,12.488-18.426c3.078-4.172,6.337-8.201,9.717-12.142
		c4.005-4.671,8.036-9.303,12.401-13.646c2.114-2.104,4.381-4.064,6.411-6.227c2.535-2.7,5.482-4.911,8.136-7.46
		c1.955-1.877,4.259-3.387,6.328-5.152c4.348-3.708,8.96-7.06,13.641-10.326c4.241-2.959,8.618-5.704,12.995-8.458
		c3.617-2.275,7.482-4.082,11.114-6.297c3.625-2.211,7.586-3.701,11.311-5.669c4.998-2.64,10.345-4.404,15.514-6.611
		c6.034-2.576,12.366-4.193,18.558-6.26c5.146-1.717,10.397-2.888,15.665-4.041c4.072-0.891,8.192-1.558,12.297-2.291
		c2.677-0.478,5.347-1.015,8.042-1.394c1.741-0.245,3.494-0.414,5.247-0.563c4.18-0.355,8.356-0.805,12.544-0.98
		c5.279-0.221,10.568-0.294,15.85-0.231c1.326,0.016,2.684,0.184,4.027,0.177c3.881-0.022,7.751,0.258,11.61,0.557
		c4.671,0.362,9.371,0.726,13.965,1.586c3.366,0.63,6.75,1.226,10.116,1.872c5.204,0.999,10.382,2.083,15.529,3.337
		c4.442,1.082,8.722,2.679,13.101,3.96c3.282,0.959,6.552,2.003,9.735,3.246c5.351,2.091,10.738,4.144,15.897,6.65
		c3.562,1.731,7.233,3.255,10.697,5.197c4.155,2.329,8.464,4.412,12.473,6.966c3.124,1.99,6.432,3.709,9.402,5.913
		c2.983,2.213,6.243,4.032,9.124,6.351c2.602,2.095,5.423,3.899,7.942,6.078c2.654,2.297,5.604,4.261,8.101,6.692
		c2.109,2.055,4.489,3.781,6.536,5.881c1.876,1.924,3.983,3.634,5.771,5.606c2.659,2.934,5.711,5.484,8.116,8.677
		c1.535,2.037,3.537,3.705,5.167,5.712c2.588,3.186,5.22,6.335,7.764,9.559c3.422,4.336,6.671,8.796,9.737,13.382
		c2.686,4.016,5.481,7.982,7.719,12.272c2.362,4.528,5.013,8.889,7.449,13.367c2.431,4.47,4.591,9.095,6.626,13.78
		c1.567,3.606,3.124,7.22,4.559,10.875c1.736,4.422,3.327,8.901,4.809,13.426c1.247,3.809,2.446,7.637,3.556,11.48
		c1.444,5.002,2.576,10.099,3.701,15.186c1.144,5.172,2.089,10.384,2.855,15.632c0.701,4.803,1.355,9.604,1.778,14.441
		c0.278,3.177,0.516,6.358,0.811,9.529c0.176,1.9-0.204,3.847,0.431,5.705C826.51,403.564,826.51,410.262,826.51,416.96z"/>
	<path fill="#FFFFFF" stroke="#B39C77" stroke-miterlimit="10" d="M790.451,279.492c-0.805-0.467-1.397-0.391-1.979-0.387
		c-4.336,0.029-8.628-0.389-12.929-0.959c-4.4-0.583-8.761-1.368-12.983-2.65c-5.202-1.58-10.445-3.103-15.432-5.315
		c-4.767-2.114-9.556-4.273-13.93-7.075c-3.726-2.388-7.66-4.509-11.017-7.5c-1.99-1.774-4.374-3.12-6.277-5.007
		c-2.346-2.327-5.115-4.207-7.125-6.897c-0.948-1.268-2.346-2.12-3.383-3.366c-2.145-2.578-4.389-5.073-6.431-7.739
		c-2.615-3.415-5.042-6.956-7.325-10.6c-0.674-1.076-1.517-2.054-1.865-3.375c1.101,0.333,2.158,0.215,3.198,0.187
		c2.926-0.081,5.775,0.604,8.665,0.871c3.435,0.318,6.854,0.94,10.249,1.659c4.455,0.944,8.915,1.903,13.164,3.522
		c5.014,1.911,10.106,3.679,14.876,6.168c3.55,1.852,7.055,3.815,10.447,5.94c3.136,1.965,6.254,4.022,9.09,6.386
		c2.911,2.427,6.016,4.648,8.62,7.442c1.207,1.295,2.647,2.384,3.833,3.674c2.667,2.901,5.332,5.803,7.817,8.885
		c2.69,3.336,5.085,6.852,7.453,10.397C788.341,275.48,789.254,277.367,790.451,279.492z"/>
	<path fill="#FFFFFF" stroke="#B39C77" stroke-miterlimit="10" d="M793.373,530.139c-2.074-4.094-4.139-7.874-5.554-11.964
		c-0.3-0.868-0.656-1.717-1.015-2.563c-2.501-5.903-4.152-12.063-5.572-18.295c-0.9-3.949-1.581-7.929-2.064-11.955
		c-0.577-4.805-1.063-9.604-0.993-14.451c0.044-3.023-0.205-6.066,0.063-9.066c0.324-3.619,0.625-7.246,1.153-10.854
		c0.75-5.129,1.79-10.185,3.09-15.195c1.46-5.625,3.372-11.094,5.583-16.467c1.245-3.025,2.721-5.938,4.089-8.904
		c0.222-0.481,0.364-1.222,0.947-1.188c0.464,0.027,0.547,0.781,0.78,1.216c2.334,4.356,4.305,8.887,6.073,13.489
		c2.561,6.667,4.485,13.545,5.895,20.541c0.874,4.336,1.52,8.724,1.872,13.151c0.21,2.641,0.285,5.292,0.526,7.921
		c0.353,3.846-0.108,7.662-0.128,11.488c-0.016,3.073-0.453,6.165-0.863,9.243c-0.48,3.606-1.095,7.174-1.815,10.735
		c-0.92,4.549-2.261,8.976-3.641,13.399c-1.76,5.638-4.148,11.017-6.579,16.381C794.743,527.856,794.101,528.837,793.373,530.139z"
		/>
	<path fill="#FFFFFF" stroke="#B39C77" stroke-miterlimit="10" d="M686.657,597.32c-1.093,1.884-2.052,3.638-3.106,5.334
		c-3.029,4.876-6.445,9.485-10.2,13.813c-2.197,2.532-4.572,4.931-6.886,7.364c-2.557,2.688-5.522,4.869-8.154,7.443
		c-1.973,1.93-4.451,3.26-6.601,4.982c-3.18,2.548-6.786,4.389-10.201,6.549c-3.984,2.52-8.367,4.146-12.564,6.189
		c-6.13,2.984-12.697,4.465-19.179,6.296c-3.731,1.054-7.529,1.575-11.354,2.093c-3.767,0.51-7.528,0.763-11.319,0.688
		c-0.113-0.002-0.225-0.063-0.403-0.116c1.324-2.688,3.076-5.073,4.52-7.635c1.306-2.317,3.201-4.184,4.633-6.393
		c1.538-2.371,3.705-4.215,5.373-6.452c1.505-2.019,3.483-3.529,5.104-5.376c2.732-3.112,6.031-5.57,9.037-8.357
		c1.886-1.749,4.202-3.024,6.239-4.623c3.231-2.536,6.846-4.445,10.32-6.591c4.216-2.604,8.821-4.336,13.273-6.424
		c5.212-2.444,10.713-3.843,16.204-5.342c1.244-0.34,2.577-0.384,3.793-0.793c4.344-1.46,8.854-1.789,13.367-2.189
		C681.152,597.55,683.737,597.223,686.657,597.32z"/>
	<path fill="#FFFFFF" stroke="#B39C77" stroke-miterlimit="10" d="M478.802,467.931c-20.165-40.173-20.257-80.445-0.427-121.188
		c10.224,19.214,15.332,39.375,15.402,60.732C493.847,428.798,488.953,448.992,478.802,467.931z"/>
	<path fill="#FFFFFF" stroke="#B39C77" stroke-miterlimit="10" d="M481.652,598.06c3.352-0.028,6.527,0.245,9.71,0.452
		c2.266,0.147,4.519,0.411,6.719,0.866c2.458,0.509,4.915,1.046,7.372,1.571c4.737,1.012,9.4,2.313,13.934,4.004
		c3.147,1.174,6.207,2.585,9.289,3.928c1.498,0.653,3.021,1.286,4.422,2.114c3.698,2.187,7.573,4.078,11.107,6.536
		c2.972,2.068,6.133,3.951,8.767,6.394c2.629,2.439,5.651,4.426,7.999,7.216c1.281,1.521,2.975,2.744,4.35,4.228
		c2.085,2.251,4.277,4.44,6.079,6.907c2.388,3.269,4.979,6.392,7.129,9.846c1.25,2.008,2.532,3.99,3.784,6.192
		c-2.676,0.107-5.165-0.24-7.661-0.386c-1.923-0.113-3.833-0.367-5.747-0.577c-3.203-0.351-6.423-0.735-9.496-1.619
		c-5.584-1.607-11.307-2.792-16.699-5.017c-3.342-1.379-6.606-2.946-9.91-4.418c-5.21-2.322-9.963-5.44-14.703-8.559
		c-2.883-1.897-5.744-3.886-8.328-6.158c-2.388-2.099-4.934-4.052-7.124-6.344c-2.102-2.2-4.429-4.209-6.32-6.576
		c-1.726-2.16-3.759-4.056-5.342-6.314c-2.052-2.927-4.188-5.797-6.063-8.852C483.838,601.73,482.631,600.046,481.652,598.06z"/>
	<path fill="#FFFFFF" stroke="#B39C77" stroke-miterlimit="10" d="M688.016,346.338c1.35,1.995,2.329,4.163,3.307,6.316
		c1.276,2.811,2.454,5.666,3.567,8.551c1.685,4.367,3.136,8.812,4.299,13.33c1.215,4.719,2.261,9.501,2.89,14.338
		c0.372,2.86,0.671,5.74,0.863,8.632c0.265,3.997,0.607,7.993,0.437,11.993c-0.205,4.814-0.544,9.616-1.166,14.411
		c-0.755,5.813-1.944,11.514-3.385,17.178c-1.237,4.862-3.019,9.535-4.76,14.234c-1.168,3.152-2.932,6.017-4.022,9.188
		c-0.16,0.464-0.496,0.87-0.763,1.294c-0.242,0.385-0.299,1.104-0.718,1.106c-0.591,0.003-0.701-0.726-0.953-1.194
		c-2.618-4.872-4.75-9.961-6.669-15.136c-2.221-5.992-3.893-12.162-5.184-18.407c-0.877-4.243-1.574-8.541-1.893-12.889
		c-0.191-2.598-0.324-5.2-0.527-7.794c-0.161-2.069-0.243-4.13-0.182-6.19c0.154-5.243,0.531-10.463,1.196-15.679
		c1.102-8.649,3.084-17.071,5.899-25.303c1.529-4.469,3.248-8.866,5.365-13.102C686.418,349.612,687.101,347.948,688.016,346.338z"
		/>
	<path fill="#FFFFFF" stroke="#B39C77" stroke-miterlimit="10" d="M374.374,531.469c-20.655-37.805-20.049-83.935-0.452-121.092
		c10.095,18.978,15.243,39.188,15.297,60.566C389.275,492.301,384.379,512.574,374.374,531.469z"/>
	<path fill="#FFFFFF" stroke="#B39C77" stroke-miterlimit="10" d="M685.714,216.513c-3.288-0.421-6.29-0.081-9.274-0.26
		c-1.956-0.117-3.898-0.474-5.843-0.744c-3.804-0.528-7.617-1.146-11.274-2.264c-4.799-1.467-9.655-2.792-14.323-4.671
		c-4.767-1.919-9.343-4.235-13.855-6.679c-3.851-2.086-7.52-4.478-11.093-6.995c-2.995-2.11-5.935-4.335-8.665-6.772
		c-2.341-2.089-4.772-4.111-6.924-6.39c-3.716-3.934-7.323-7.976-10.603-12.294c-2.936-3.866-5.509-7.978-8.197-12.013
		c-0.282-0.424-0.512-0.849-0.657-1.341c2.341-0.372,4.647-0.104,6.845,0.245c3.647,0.578,7.344,0.77,10.958,1.485
		c3.882,0.768,7.77,1.523,11.591,2.6c2.408,0.679,4.876,1.224,7.148,2.236c3.764,1.676,7.709,2.901,11.393,4.77
		c4.395,2.23,8.757,4.528,12.918,7.159c3.127,1.977,6.203,4.084,9.058,6.43c3.875,3.183,7.709,6.424,11.232,10.027
		c2.643,2.703,5.249,5.455,7.651,8.345c2.574,3.098,4.974,6.37,7.252,9.721C682.65,211.459,683.954,213.967,685.714,216.513z"/>
	<path fill="#FFFFFF" stroke="#B39C77" stroke-miterlimit="10" d="M583.443,409.596c2.676,4.978,4.998,9.909,6.883,15.02
		c1.515,4.107,2.928,8.268,4.068,12.492c1.171,4.342,2.062,8.761,2.731,13.226c0.578,3.857,1.04,7.71,1.271,11.605
		c0.167,2.811,0.62,5.625,0.434,8.432c-0.257,3.87-0.072,7.76-0.491,11.613c-1.061,9.772-2.849,19.385-5.989,28.747
		c-1.852,5.522-3.96,10.911-6.441,16.171c-0.447,0.948-0.995,1.833-1.44,2.777c-0.123,0.262-0.201,0.613-0.532,0.655
		c-0.396,0.051-0.413-0.376-0.539-0.602c-2.744-4.906-4.913-10.073-6.885-15.326c-2.41-6.422-4.161-13.041-5.504-19.751
		c-0.621-3.101-1.064-6.252-1.438-9.411c-0.74-6.245-1.145-12.502-0.929-18.776c0.137-3.975,0.436-7.949,0.93-11.912
		c0.529-4.232,1.158-8.444,2.108-12.59c1.294-5.651,2.873-11.218,4.903-16.675C578.567,419.949,580.948,414.808,583.443,409.596z"/>
	<path fill="#FFFFFF" stroke="#B39C77" stroke-miterlimit="10" d="M583.461,404.762c-9.949-19.223-15.114-39.22-15.169-60.604
		c-0.055-21.368,4.962-41.404,14.744-60.699c10.136,19.094,15.204,39.183,15.302,60.503
		C598.437,365.309,593.493,385.462,583.461,404.762z"/>
	<path fill="#FFFFFF" stroke="#B39C77" stroke-miterlimit="10" d="M478.488,342.017c-11.348-21.325-16.272-43.85-15.122-67.607
		c0.909-18.782,5.775-36.599,14.733-53.585c10.054,19.151,15.164,39.213,15.217,60.561
		C493.367,302.752,488.425,322.885,478.488,342.017z"/>
	<path fill="#FFFFFF" stroke="#B39C77" stroke-miterlimit="10" d="M688.988,593.813c-11.187-21.123-16.278-43.422-15.269-66.967
		c0.82-19.148,5.715-37.323,14.896-54.69C708.72,512.819,708.839,553.166,688.988,593.813z"/>
	<path fill="#FFFFFF" stroke="#B39C77" stroke-miterlimit="10" d="M582.623,157.357c11.367,21.261,16.234,43.712,15.168,67.383
		c-0.851,18.893-5.803,36.778-14.707,53.795c-7.534-14.1-12.274-28.86-14.221-44.502
		C565.518,207.152,570.166,181.697,582.623,157.357z"/>
	<path fill="#FFFFFF" stroke="#B39C77" stroke-miterlimit="10" d="M686.614,594.947c-1.964,0.229-3.811-0.133-5.63-0.283
		c-1.705-0.141-3.43-0.063-5.138-0.388c-2.09-0.398-4.284-0.325-6.332-0.849c-7.359-1.883-14.917-3.094-21.967-6.054
		c-2.481-1.042-4.966-2.086-7.435-3.161c-1.382-0.602-2.77-1.208-4.089-1.933c-4.39-2.411-8.784-4.828-12.933-7.638
		c-2.686-1.819-5.397-3.666-7.787-5.841c-2.71-2.465-5.89-4.408-8.182-7.349c-0.718-0.922-1.738-1.593-2.581-2.406
		c-2.959-2.858-5.605-6.021-8.161-9.23c-1.576-1.979-3.254-3.915-4.603-6.066c-1.768-2.818-3.79-5.474-5.342-8.428
		c-0.331-0.63-0.26-0.899,0.52-0.857c3.31,0.179,6.617,0.377,9.913,0.757c3.485,0.401,7.003,0.659,10.397,1.559
		c6.943,1.843,14.025,3.293,20.612,6.259c4.211,1.896,8.505,3.648,12.51,5.967c3.426,1.984,6.874,3.968,10.089,6.266
		c2.773,1.982,5.665,3.862,8.184,6.151c2.322,2.11,4.882,3.97,7.024,6.243c2,2.123,4.275,4.012,6.043,6.309
		c1.639,2.129,3.643,3.924,5.187,6.115c2.112,2.996,4.385,5.875,6.382,8.956C684.495,590.897,685.642,592.769,686.614,594.947z"/>
	<path fill="#FFFFFF" stroke="#B39C77" stroke-miterlimit="10" d="M476.955,469.71c-2.518-0.198-4.731-0.336-6.936-0.56
		c-1.38-0.141-2.757,0.017-4.151-0.263c-3.894-0.783-7.833-1.338-11.727-2.119c-4.869-0.976-9.712-2.138-14.327-3.986
		c-4.206-1.685-8.455-3.274-12.523-5.31c-4.296-2.15-8.446-4.557-12.508-7.092c-3.136-1.957-6.148-4.159-8.992-6.522
		c-2.436-2.024-4.966-3.962-7.242-6.156c-1.232-1.188-2.364-2.521-3.594-3.733c-3.586-3.534-6.779-7.392-9.899-11.343
		c-2.491-3.155-4.62-6.537-6.902-9.823c-0.773-1.113-1.364-2.351-2.096-3.632c2.211-0.361,4.335,0.118,6.441,0.236
		c2.114,0.118,4.244,0.36,6.361,0.638c4.06,0.532,8.163,0.97,12.064,2.148c6.119,1.848,12.429,3.193,18.222,5.999
		c4.237,2.052,8.701,3.68,12.68,6.211c3.231,2.055,6.691,3.791,9.692,6.152c2.687,2.115,5.701,3.857,8.096,6.274
		c2.535,2.559,5.386,4.748,7.884,7.369c3.391,3.558,6.747,7.145,9.757,11.007C470.75,459.688,474.01,464.366,476.955,469.71z"/>
	<path fill="#FFFFFF" stroke="#B39C77" stroke-miterlimit="10" d="M478.901,473.123c2.879,5.433,5.321,10.868,7.394,16.484
		c2.301,6.237,4.111,12.611,5.402,19.114c0.73,3.678,1.202,7.416,1.681,11.148c0.885,6.903,0.765,13.818,0.639,20.727
		c-0.072,3.919-0.623,7.834-1.148,11.739c-0.764,5.682-1.938,11.277-3.47,16.774c-1.41,5.06-3.171,10.029-5.201,14.895
		c-1.353,3.245-3.031,6.333-4.422,9.556c-0.092,0.213-0.309,0.444-0.52,0.516c-0.242,0.083-0.295-0.269-0.339-0.411
		c-0.405-1.297-1.22-2.383-1.792-3.588c-4.267-9.001-7.676-18.294-9.819-28.055c-0.842-3.834-1.617-7.683-2.129-11.556
		c-0.388-2.937-0.774-5.898-0.898-8.883c-0.137-3.292-0.249-6.582-0.214-9.875c0.049-4.666,0.402-9.305,0.973-13.942
		c0.752-6.102,1.887-12.107,3.51-18.041c1.136-4.153,2.449-8.227,3.944-12.265c1.382-3.733,3.048-7.328,4.661-10.953
		C477.643,475.411,478.254,474.368,478.901,473.123z"/>
	<path fill="#FFFFFF" stroke="#B39C77" stroke-miterlimit="10" d="M687.963,341.042c-20.069-40.127-20.244-80.343-0.452-120.656
		c7.409,13.081,11.984,27.105,14.064,41.867C705.468,289.892,701.001,316.19,687.963,341.042z"/>
	<path fill="#FFFFFF" stroke="#B39C77" stroke-miterlimit="10" d="M481.141,471.925c3.237-0.113,6.285,0.195,9.343,0.461
		c4.002,0.348,7.979,0.829,11.887,1.76c5.328,1.27,10.599,2.74,15.815,4.431c3.698,1.199,7.156,2.92,10.665,4.528
		c2.432,1.115,4.929,2.121,7.211,3.551c3.391,2.124,6.908,4.073,10.141,6.415c2.659,1.926,5.504,3.696,7.831,5.985
		c2.505,2.465,5.61,4.287,7.667,7.228c0.419,0.599,1.173,0.952,1.689,1.497c3.435,3.626,6.812,7.294,9.702,11.396
		c1.03,1.462,2.273,2.792,3.235,4.312c1.795,2.838,3.973,5.441,5.363,8.662c-2.857,0.117-5.636-0.171-8.423-0.409
		c-1.712-0.146-3.424-0.229-5.117-0.565c-3.322-0.661-6.663-1.229-9.976-1.933c-4.94-1.05-9.844-2.301-14.521-4.21
		c-3.653-1.491-7.348-2.895-10.899-4.646c-4.723-2.33-9.346-4.862-13.667-7.839c-3.583-2.469-7.275-4.837-10.455-7.874
		c-1.513-1.445-3.25-2.653-4.781-4.081c-1.906-1.778-3.755-3.623-5.535-5.527c-3.094-3.31-6.026-6.762-8.802-10.349
		c-2.274-2.938-4.23-6.092-6.347-9.135C482.394,474.472,481.843,473.209,481.141,471.925z"/>
	<path fill="#FFFFFF" stroke="#B39C77" stroke-miterlimit="10" d="M791.328,531.335c-2.861,0.348-5.607,0.143-8.233-0.256
		c-7.796-1.185-15.633-2.215-23.231-4.494c-4.556-1.367-8.892-3.276-13.289-5.032c-5.878-2.348-11.351-5.535-16.666-8.913
		c-3.003-1.909-6.005-3.906-8.776-6.182c-2.352-1.932-4.743-3.83-6.965-5.905c-4.158-3.881-8.109-7.99-11.764-12.335
		c-3.027-3.599-5.784-7.447-8.367-11.395c-1.162-1.776-2.211-3.627-3.377-5.552c1.312-0.273,2.609-0.305,3.788-0.077
		c1.503,0.291,3.025,0.28,4.507,0.359c3.152,0.169,6.242,0.721,9.348,1.144c2.804,0.382,5.649,0.814,8.33,1.677
		c6.089,1.96,12.37,3.411,18.165,6.197c4.211,2.025,8.567,3.808,12.499,6.349c2.834,1.831,5.865,3.369,8.52,5.467
		c3.394,2.682,7.047,5.027,10.165,8.075c1.711,1.672,3.609,3.153,5.321,4.844c5.771,5.702,10.874,11.963,15.475,18.621
		C788.397,526.275,790.068,528.634,791.328,531.335z"/>
	<path fill="#FFFFFF" stroke="#B39C77" stroke-miterlimit="10" d="M581.725,534.499c-1.612,2.916-3.289,5.693-5.106,8.4
		c-1.746,2.6-3.648,5.076-5.561,7.545c-2.397,3.094-4.984,6.021-7.748,8.801c-2.961,2.979-6.065,5.783-9.204,8.573
		c-2.484,2.208-5.238,3.989-7.803,6.047c-3.005,2.41-6.457,4.117-9.683,6.175c-4.188,2.672-8.775,4.441-13.215,6.553
		c-6.443,3.065-13.359,4.578-20.198,6.369c-3.006,0.787-6.054,1.321-9.121,1.742c-1.992,0.273-4.005,0.492-6.012,0.52
		c-1.9,0.027-3.771,0.411-5.679,0.31c-0.826-0.044-0.83-0.328-0.482-0.886c1.545-2.477,3.096-4.948,4.7-7.389
		c1.654-2.517,3.471-4.899,5.315-7.263c1.675-2.147,3.435-4.234,5.255-6.259c1.878-2.089,3.807-4.141,5.837-6.08
		c1.972-1.884,4.167-3.535,6.143-5.415c2.222-2.114,4.896-3.615,7.232-5.545c3.117-2.576,6.706-4.352,10.067-6.511
		c4.105-2.636,8.628-4.36,13-6.435c6.576-3.12,13.568-4.716,20.532-6.54c3.466-0.908,6.971-1.422,10.486-1.933
		c2.32-0.338,4.683-0.488,7.029-0.515C578.895,534.748,580.25,534.36,581.725,534.499z"/>
	<path fill="#FFFFFF" stroke="#B39C77" stroke-miterlimit="10" d="M586.169,532.025c0.58-1.594,1.622-2.909,2.487-4.324
		c1.873-3.062,3.92-5.997,6.09-8.858c2.482-3.273,5.108-6.408,7.883-9.44c1.647-1.799,3.32-3.576,5.093-5.233
		c3.635-3.4,7.401-6.643,11.379-9.666c3.402-2.586,7.059-4.726,10.622-7.037c3.129-2.029,6.554-3.462,9.829-5.192
		c4.341-2.293,8.923-3.9,13.548-5.432c1.859-0.616,3.804-0.985,5.643-1.65c3.808-1.378,7.786-1.968,11.733-2.699
		c2.093-0.387,4.219-0.64,6.341-0.818c3.099-0.26,6.208-0.397,9.468-0.596c-1.844,3.278-3.695,6.361-5.731,9.348
		c-2.119,3.108-4.405,6.093-6.816,8.951c-2.873,3.405-6.045,6.561-9.183,9.741c-2.512,2.545-5.448,4.547-7.932,7.102
		c-1.549,1.594-3.637,2.656-5.442,4.011c-3.914,2.938-8.188,5.281-12.396,7.751c-3.95,2.318-8.197,3.917-12.344,5.774
		c-5.267,2.358-10.782,3.913-16.373,5.215c-2.881,0.671-5.832,1.038-8.716,1.697c-4.214,0.963-8.468,1.341-12.778,1.269
		C587.802,531.928,587.044,532.419,586.169,532.025z"/>
	<path fill="#FFFFFF" stroke="#B39C77" stroke-miterlimit="10" d="M476.804,471.784c-1.548,2.768-2.976,5.297-4.662,7.673
		c-1.856,2.615-3.702,5.237-5.6,7.821c-0.818,1.113-1.703,2.187-2.645,3.197c-2.788,2.99-5.513,6.033-8.388,8.949
		c-2.599,2.636-5.591,4.783-8.234,7.353c-1.719,1.672-3.939,2.816-5.848,4.308c-3.473,2.714-7.389,4.697-11.117,6.993
		c-4.12,2.538-8.619,4.186-12.96,6.214c-6.238,2.914-12.891,4.399-19.512,6.023c-4.359,1.069-8.785,1.68-13.246,2.187
		c-2.479,0.282-4.979-0.212-7.419,0.422c-0.147,0.038-0.389,0.011-0.478-0.086c-0.175-0.191,0.028-0.359,0.13-0.542
		c3.168-5.656,6.776-11.01,10.917-16.001c2.578-3.108,5.162-6.212,8.041-9.052c2.505-2.471,5.153-4.784,7.767-7.136
		c2.312-2.08,4.909-3.733,7.27-5.702c3.073-2.562,6.631-4.323,9.923-6.512c4.074-2.71,8.605-4.424,12.945-6.558
		c5.04-2.478,10.414-3.928,15.776-5.448c3.744-1.062,7.503-2.06,11.346-2.684c2.021-0.328,4.068-0.489,6.095-0.781
		C470.119,471.958,473.373,472.379,476.804,471.784z"/>
	<path fill="#FFFFFF" stroke="#B39C77" stroke-miterlimit="10" d="M584.058,656.924c-19.94-40.38-20.077-80.584-0.251-120.886
		c10.126,18.796,15.253,38.834,15.318,60.168C599.19,617.574,594.506,637.77,584.058,656.924z"/>
	<path fill="#FFFFFF" stroke="#B39C77" stroke-miterlimit="10" d="M581.188,408.577c-2.529,4.844-5.48,9.264-8.718,13.453
		c-3.336,4.316-6.768,8.591-10.758,12.344c-2.893,2.721-5.775,5.447-8.84,8c-2.997,2.497-6.235,4.606-9.325,6.942
		c-3.153,2.384-6.7,4.053-10.044,6.084c-4.424,2.687-9.293,4.32-13.979,6.398c-5.257,2.331-10.788,3.665-16.326,4.913
		c-3.358,0.756-6.862,1.077-10.236,1.75c-3.924,0.783-7.848,0.649-11.853,1.069c1.067-2.475,2.704-4.541,3.983-6.813
		c1.293-2.297,3.049-4.269,4.583-6.398c3.195-4.436,6.785-8.523,10.62-12.414c2.062-2.092,4.301-3.987,6.412-6.009
		c2.496-2.389,5.427-4.176,7.981-6.427c2.635-2.323,5.759-3.826,8.577-5.825c2.657-1.885,5.596-3.296,8.492-4.773
		c6.745-3.441,13.828-5.959,21.061-8.179c4.55-1.396,9.177-2.281,13.832-3.037c2.966-0.482,5.979-0.795,9.011-0.887
		C577.467,408.713,579.273,408.56,581.188,408.577z"/>
	<path fill="#FFFFFF" stroke="#B39C77" stroke-miterlimit="10" d="M581.144,279.989c-4.402-0.531-8.51-0.521-12.599-1.062
		c-3.565-0.472-7.09-1.124-10.626-1.735c-4.728-0.817-9.176-2.593-13.72-4.045c-3.189-1.019-6.377-2.118-9.337-3.617
		c-4.279-2.167-8.75-4.032-12.72-6.742c-2.616-1.785-5.434-3.281-7.88-5.298c-3.271-2.698-6.811-5.051-9.865-8.037
		c-1.37-1.34-2.787-2.672-4.263-3.929c-1.661-1.414-3.094-3.108-4.551-4.747c-2.031-2.286-3.947-4.669-5.865-7.052
		c-1.709-2.122-3.236-4.365-4.793-6.586c-1.67-2.383-3.164-4.889-4.823-7.478c2.331-0.287,4.492,0.125,6.628,0.286
		c1.489,0.112,3.001,0.128,4.504,0.346c4.007,0.579,8.013,1.136,11.985,1.94c2.987,0.604,5.961,1.297,8.845,2.237
		c3.856,1.257,7.623,2.794,11.413,4.249c1.637,0.629,3.336,1.187,4.835,2.069c3.03,1.781,6.291,3.126,9.264,4.988
		c3.775,2.365,7.564,4.723,11.094,7.45c2.605,2.012,5.273,3.98,7.647,6.246c3.064,2.925,6.241,5.738,9.058,8.933
		c4.071,4.619,7.879,9.429,11.329,14.52C578.193,275.125,579.538,277.423,581.144,279.989z"/>
	<path fill="#FFFFFF" stroke="#B39C77" stroke-miterlimit="10" d="M585.658,408.419c2.989,0.137,5.89,0.144,8.762,0.433
		c3.738,0.376,7.477,0.806,11.168,1.547c2.451,0.492,4.94,0.852,7.314,1.641c5.678,1.887,11.531,3.318,16.966,5.849
		c4.424,2.06,8.909,4.065,13.046,6.666c2.884,1.813,5.888,3.481,8.582,5.561c2.704,2.087,5.601,3.964,8.073,6.307
		c2.037,1.932,4.291,3.619,6.232,5.643c4.132,4.31,8.258,8.637,11.857,13.41c2.932,3.888,5.629,7.949,8.188,12.095
		c0.743,1.204,0.677,1.359-0.684,1.254c-2.133-0.164-4.251-0.547-6.385-0.683c-1.845-0.118-3.671-0.374-5.505-0.529
		c-3.344-0.284-6.613-0.975-9.88-1.64c-4.043-0.823-8.09-1.738-11.935-3.253c-4.331-1.706-8.754-3.181-12.962-5.205
		c-4.294-2.064-8.535-4.276-12.498-6.869c-4.161-2.723-8.298-5.534-12.105-8.801c-3.031-2.602-5.897-5.362-8.831-8.06
		c-2.862-2.632-5.402-5.557-7.829-8.53C592.946,420.006,588.902,414.54,585.658,408.419z"/>
	<path fill="#FFFFFF" stroke="#B39C77" stroke-miterlimit="10" d="M480.572,345.678c4.584,0.192,8.882,0.513,13.182,1.033
		c5.403,0.653,10.757,1.55,15.945,3.138c5.599,1.714,11.264,3.365,16.531,5.942c4.04,1.976,8.161,3.844,12,6.217
		c3.077,1.903,6.264,3.699,9.058,5.967c2.657,2.157,5.579,3.989,8.039,6.371c2.107,2.041,4.449,3.841,6.447,5.969
		c2.987,3.181,5.98,6.36,8.708,9.791c2.243,2.821,4.362,5.725,6.449,8.651c1.562,2.19,2.893,4.545,4.424,6.982
		c-3.416,0.106-6.584-0.128-9.754-0.443c-2.664-0.265-5.309-0.65-7.957-1.031c-4.511-0.648-8.936-1.698-13.301-2.954
		c-4.795-1.379-9.403-3.322-14.015-5.216c-5.306-2.179-10.312-5.001-15.142-8.037c-3.189-2.004-6.465-3.994-9.323-6.49
		c-3.077-2.686-6.403-5.071-9.265-8.027c-1.958-2.022-4.047-3.919-5.963-5.998c-2.592-2.812-4.954-5.806-7.379-8.754
		c-2.07-2.517-3.756-5.306-5.623-7.962C482.554,349.294,481.623,347.592,480.572,345.678z"/>
	<path fill="#FFFFFF" stroke="#B39C77" stroke-miterlimit="10" d="M476.144,345.587c-0.182,1.219-0.956,1.88-1.402,2.716
		c-1.401,2.626-3.09,5.06-4.795,7.497c-3.03,4.332-6.435,8.328-9.914,12.304c-2.474,2.828-5.324,5.224-7.885,7.933
		c-1.373,1.452-3.112,2.55-4.59,3.912c-2.245,2.069-4.774,3.746-7.249,5.5c-3.821,2.708-7.857,5.047-11.936,7.352
		c-4.566,2.58-9.438,4.365-14.208,6.442c-5.311,2.313-10.884,3.631-16.461,4.9c-3.525,0.802-7.207,1.045-10.747,1.749
		c-3.573,0.711-7.129,0.492-10.806,1.02c0.819-2.338,2.334-4.047,3.396-6.01c1.339-2.473,3.158-4.618,4.812-6.877
		c3.176-4.338,6.655-8.402,10.423-12.249c4.524-4.62,9.348-8.846,14.499-12.76c2.734-2.078,5.683-3.779,8.477-5.732
		c3.928-2.745,8.332-4.566,12.56-6.744c2.572-1.325,5.227-2.357,7.894-3.382c2.8-1.077,5.733-1.802,8.552-2.834
		c4.553-1.667,9.318-2.403,14.047-3.231c2.54-0.444,5.155-0.618,7.731-0.911C471.06,345.896,473.596,346.37,476.144,345.587z"/>
	<path fill="#FFFFFF" stroke="#B39C77" stroke-miterlimit="10" d="M685.941,342.335c-2.804,0.361-5.391-0.174-7.989-0.223
		c-1.91-0.036-3.809-0.479-5.719-0.686c-5.117-0.553-10.163-1.529-15.092-2.958c-6.396-1.854-12.707-4.02-18.707-6.938
		c-4.053-1.971-8.148-3.95-11.895-6.423c-2.838-1.873-5.886-3.49-8.454-5.764c-3.053-2.704-6.503-4.908-9.404-7.826
		c-2.1-2.112-4.338-4.104-6.401-6.26c-2.872-3.002-5.476-6.237-8.072-9.482c-1.834-2.292-3.425-4.75-5.135-7.123
		c-1.234-1.712-2.221-3.619-3.392-5.394c-0.542-0.822-0.02-0.858,0.635-0.854c4.206,0.024,8.372,0.437,12.543,0.98
		c4.27,0.556,8.492,1.295,12.675,2.298c5.964,1.43,11.662,3.642,17.346,5.89c5.377,2.127,10.447,4.91,15.351,7.913
		c3.179,1.947,6.471,3.834,9.309,6.275c2.282,1.963,4.786,3.639,7.008,5.66c4.08,3.711,7.933,7.642,11.589,11.779
		c2.225,2.518,4.404,5.09,6.359,7.794c2.437,3.37,4.819,6.809,6.865,10.451C685.499,341.695,685.673,341.928,685.941,342.335z"/>
	<path fill="#FFFFFF" stroke="#B39C77" stroke-miterlimit="10" d="M790.935,405.076c-0.548-0.028-0.965-0.068-1.382-0.067
		c-4.964,0.008-9.875-0.501-14.787-1.225c-5.338-0.787-10.673-1.723-15.728-3.506c-4.931-1.739-9.99-3.224-14.691-5.588
		c-4.246-2.135-8.587-4.139-12.556-6.74c-3.953-2.59-8.032-5.036-11.588-8.213c-1.558-1.391-3.362-2.513-4.881-3.941
		c-3.763-3.537-7.475-7.12-10.896-11.013c-2.33-2.651-4.599-5.364-6.692-8.174c-2.155-2.893-4.294-5.848-6.024-9.05
		c-0.449-0.832-0.964-1.629-1.522-2.565c2.585-0.063,4.952,0.225,7.331,0.426c1.923,0.163,3.839,0.34,5.759,0.542
		c3.373,0.354,6.691,0.986,9.998,1.681c2.69,0.565,5.457,1.001,7.998,1.986c3.334,1.292,6.779,2.247,10.086,3.599
		c1.237,0.506,2.515,0.92,3.719,1.494c4.788,2.284,9.634,4.509,14.085,7.378c2.964,1.91,6.078,3.658,8.773,5.97
		c3.029,2.6,6.361,4.817,9.235,7.632c1.612,1.579,3.388,3.062,4.946,4.677c2.204,2.284,4.498,4.525,6.365,7.137
		c1.168,1.633,2.585,3.085,3.799,4.688c2.365,3.125,4.69,6.281,6.672,9.673C789.561,402.919,790.223,403.93,790.935,405.076z"/>
	<path fill="#FFFFFF" stroke="#B39C77" stroke-miterlimit="10" d="M476.332,343.182c-2.818,0.073-5.402-0.312-7.998-0.428
		c-2.608-0.117-5.171-0.515-7.742-0.852c-2.354-0.309-4.684-0.804-7.017-1.258c-3.729-0.724-7.473-1.514-10.993-2.905
		c-5.145-2.033-10.493-3.584-15.389-6.227c-3.659-1.975-7.455-3.755-10.89-6.067c-2.998-2.019-6.188-3.799-8.935-6.171
		c-2.526-2.18-5.272-4.09-7.73-6.337c-2.293-2.096-4.553-4.257-6.645-6.536c-1.813-1.976-3.764-3.871-5.365-6.012
		c-2.24-2.996-4.66-5.854-6.75-8.973c-1.761-2.628-3.382-5.33-5.192-8.218c1.941,0,3.719-0.193,5.432,0.058
		c1.501,0.22,3.008,0.196,4.506,0.369c3.323,0.384,6.642,0.769,9.922,1.421c2.738,0.544,5.527,0.971,8.168,1.834
		c4.972,1.625,10.02,3.055,14.849,5.096c5.116,2.162,10.074,4.665,14.857,7.477c3.222,1.895,6.414,3.903,9.352,6.202
		c2.624,2.054,5.491,3.855,7.817,6.233c2.404,2.458,5.285,4.412,7.38,7.204c0.652,0.869,1.578,1.59,2.371,2.388
		c2.79,2.812,5.253,5.907,7.624,9.043C470.968,334.497,473.81,338.615,476.332,343.182z"/>
	<path fill="#FFFFFF" stroke="#B39C77" stroke-miterlimit="10" d="M585.181,279.797c2.336-3.532,4.294-7.159,6.745-10.512
		c3.145-4.303,6.416-8.461,10.082-12.336c1.934-2.044,4.001-3.944,5.935-5.967c2.365-2.474,5.17-4.376,7.679-6.639
		c2.527-2.279,5.485-3.923,8.151-5.972c3.628-2.789,7.766-4.689,11.683-6.948c3.384-1.952,7.128-3.29,10.791-4.728
		c5.158-2.025,10.396-3.749,15.824-4.886c3.882-0.813,7.765-1.58,11.718-2c2.175-0.231,4.373-0.275,6.514-0.578
		c1.386-0.196,2.755-0.38,4.151-0.409c0.765-0.016,1.176,0.043,0.592,0.975c-2.392,3.821-4.742,7.66-7.463,11.268
		c-3.057,4.054-6.272,7.946-9.779,11.633c-2.349,2.469-4.897,4.692-7.323,7.058c-2.228,2.173-4.801,3.881-7.135,5.883
		c-2.848,2.443-6.132,4.171-9.139,6.326c-3.805,2.727-8.086,4.499-12.164,6.682c-4.883,2.614-10.19,4.063-15.343,5.96
		c-5.354,1.971-10.915,2.892-16.455,3.905c-2.737,0.5-5.568,0.682-8.369,0.914C589.699,279.607,587.504,279.368,585.181,279.797z"/>
	<path fill="#FFFFFF" stroke="#B39C77" stroke-miterlimit="10" d="M585.643,405.848c2.45-4.056,4.768-7.86,7.398-11.482
		c1.576-2.171,3.406-4.124,4.986-6.266c2.332-3.164,5.074-5.95,7.83-8.688c3.735-3.71,7.704-7.179,11.945-10.35
		c2.677-2.002,5.513-3.739,8.214-5.675c3.661-2.624,7.731-4.43,11.649-6.555c4.798-2.603,9.945-4.251,15.027-6.123
		c4.384-1.614,8.885-2.704,13.441-3.6c3.237-0.637,6.521-1.007,9.8-1.414c2.879-0.357,5.785-0.248,8.649-0.703
		c0.358-0.057,0.732-0.008,1.196-0.008c-0.664,1.734-1.75,3.083-2.616,4.55c-2.487,4.215-5.431,8.1-8.486,11.928
		c-2.602,3.26-5.31,6.425-8.251,9.348c-3.501,3.479-7.193,6.769-11.087,9.843c-2.955,2.333-6.157,4.271-9.167,6.489
		c-3.394,2.501-7.233,4.135-10.84,6.211c-4.557,2.623-9.534,4.165-14.354,6.132c-4.852,1.98-9.912,3.09-14.98,4.177
		c-3.054,0.655-6.173,1.046-9.293,1.406C593.103,405.484,589.502,405.605,585.643,405.848z"/>
	<path fill="#FFFFFF" stroke="#B39C77" stroke-miterlimit="10" d="M580.37,156.083c0.066,0.989-0.7,1.627-1.176,2.349
		c-1.701,2.579-2.899,5.476-4.839,7.888c-2.152,2.675-4.135,5.475-6.351,8.112c-2.111,2.511-4.383,4.868-6.547,7.321
		c-1.633,1.851-3.707,3.305-5.46,5.059c-2.989,2.99-6.517,5.301-9.794,7.923c-2.014,1.611-4.35,2.812-6.485,4.279
		c-2.83,1.945-5.852,3.548-8.902,5.098c-4.905,2.493-9.91,4.765-15.157,6.453c-1.905,0.613-3.943,0.897-5.751,1.71
		c-3.161,1.421-6.555,1.761-9.857,2.506c-2.477,0.559-5.007,0.936-7.533,1.216c-3.872,0.428-7.761,0.703-11.643,1.039
		c-0.122,0.011-0.248-0.033-0.389-0.054c0.154-0.963,0.819-1.661,1.269-2.448c1.51-2.642,3.246-5.14,4.958-7.658
		c1.463-2.152,3.236-4.039,4.694-6.164c1.541-2.247,3.58-4.018,5.308-6.071c3.904-4.641,8.497-8.505,13.121-12.378
		c4.235-3.546,8.838-6.529,13.437-9.538c1.124-0.735,2.373-1.243,3.538-1.916c4.524-2.614,9.269-4.76,14.128-6.698
		c5.424-2.162,10.951-3.937,16.655-5.128c3.428-0.716,6.859-1.464,10.369-1.724c1.501-0.111,3.079-0.08,4.47-0.556
		c2.154-0.737,4.302-0.298,6.445-0.432C579.38,156.238,579.811,155.794,580.37,156.083z"/>
	<path fill="#FFFFFF" stroke="#B39C77" stroke-miterlimit="10" d="M690.367,342.361c-0.086-0.56,0.363-0.853,0.596-1.227
		c1.944-3.112,3.839-6.248,5.999-9.23c3.198-4.417,6.625-8.617,10.322-12.628c1.921-2.084,4.057-3.925,6-5.965
		c2.177-2.286,4.759-4.067,7.123-6.116c2.85-2.471,6.08-4.388,9.107-6.594c3.338-2.433,7.041-4.147,10.593-6.162
		c5.069-2.875,10.569-4.692,15.979-6.768c3.713-1.425,7.514-2.392,11.344-3.271c3.451-0.792,6.957-1.35,10.483-1.816
		c4.024-0.532,8.03-0.801,12.209-0.637c-0.784,1.819-1.935,3.345-2.896,4.969c-2.643,4.468-5.892,8.495-9.104,12.563
		c-2.014,2.55-4.37,4.765-6.46,7.234c-1.321,1.561-3.017,2.914-4.575,4.324c-1.702,1.541-3.372,3.111-5.161,4.559
		c-3.927,3.179-8.042,6.073-12.261,8.862c-3.645,2.41-7.588,4.186-11.376,6.284c-4.959,2.746-10.361,4.308-15.64,6.24
		c-3.537,1.294-7.135,2.18-10.773,2.967c-3.014,0.653-6.057,1.166-9.136,1.527c-3.304,0.388-6.588,0.774-9.92,0.733
		C692.01,342.199,691.202,342.595,690.367,342.361z"/>
	<path fill="#FFFFFF" stroke="#B39C77" stroke-miterlimit="10" d="M690.661,468.302c1.066-1.645,2.158-3.079,2.982-4.654
		c1.652-3.158,4.033-5.802,5.971-8.756c0.936-1.428,2.263-2.594,3.262-3.987c2.038-2.843,4.641-5.177,6.914-7.806
		c1.723-1.993,3.902-3.585,5.825-5.412c2.367-2.25,5.111-4.038,7.558-6.16c2.746-2.38,5.912-4.053,8.846-6.104
		c3.255-2.275,6.88-3.887,10.366-5.757c5.445-2.921,11.277-4.733,17.037-6.814c5.556-2.008,11.313-3.028,17.083-3.95
		c3.045-0.486,6.139-0.88,9.266-0.895c1.629-0.008,3.269-0.243,5.072-0.178c-2.075,3.128-3.712,6.399-5.875,9.379
		c-2.734,3.767-5.523,7.47-8.643,10.932c-1.776,1.971-3.45,4.039-5.392,5.852c-3.241,3.025-6.477,6.043-9.95,8.826
		c-2.843,2.278-5.896,4.221-8.796,6.391c-3.435,2.57-7.339,4.279-10.994,6.437c-4.562,2.694-9.581,4.272-14.429,6.281
		c-4.408,1.827-8.991,3.009-13.605,3.994c-3.496,0.747-7.045,1.345-10.631,1.731C698.669,468.069,694.833,468.439,690.661,468.302z"
		/>
	<path fill="#FFFFFF" stroke="#B39C77" stroke-miterlimit="10" d="M480.7,343.11c0.743-1.702,1.963-3.11,2.833-4.728
		c1.292-2.402,3.049-4.492,4.613-6.713c3.098-4.399,6.579-8.45,10.286-12.351c4.202-4.422,8.689-8.474,13.486-12.242
		c2.998-2.354,6.234-4.317,9.306-6.527c3.151-2.267,6.663-3.801,9.994-5.697c5.552-3.159,11.61-5.013,17.575-7.158
		c5.56-1.999,11.287-3.089,17.073-4.014c3.814-0.61,7.637-1.151,11.521-1.032c0.875,0.027,1.727-0.294,2.627-0.265
		c0.795,0.026,0.897,0.309,0.496,0.873c-2.123,2.996-3.867,6.231-5.998,9.234c-1.86,2.622-4.041,4.989-5.792,7.687
		c-0.476,0.733-1.13,1.353-1.719,2.009c-1.347,1.501-2.844,2.838-4.077,4.478c-1.224,1.629-2.923,2.91-4.454,4.299
		c-1.882,1.708-3.748,3.428-5.729,5.034c-3.569,2.895-7.266,5.585-11.064,8.177c-3.683,2.515-7.666,4.423-11.517,6.604
		c-4.387,2.484-9.145,4.01-13.782,5.871c-4.652,1.868-9.466,3.092-14.35,4.076c-3.025,0.61-6.063,1.14-9.14,1.511
		c-3.6,0.433-7.185,0.823-10.81,0.689C481.603,342.911,481.222,343.332,480.7,343.11z"/>
	<path fill="#FFFFFF" stroke="#B39C77" stroke-miterlimit="10" d="M476.944,595.503c-4.027,0.056-7.872-0.24-11.721-0.703
		c-2.7-0.325-5.465-0.46-8.053-1.183c-2.99-0.836-6.049-1.349-9.016-2.244c-4.072-1.229-8.231-2.248-12.097-4.03
		c-3.249-1.498-6.58-2.807-9.768-4.457c-4.601-2.382-9.022-5.056-13.338-7.896c-2.747-1.808-5.478-3.713-7.901-5.919
		c-2.293-2.088-4.817-3.908-6.99-6.121c-4.086-4.162-8.13-8.362-11.719-12.976c-3-3.858-5.798-7.855-8.385-11.999
		c-0.503-0.805-0.847-1.709-1.364-2.774c1.923,0.23,3.727,0.128,5.466,0.368c1.544,0.213,3.092,0.168,4.635,0.363
		c2.197,0.278,4.447,0.4,6.585,0.884c6.676,1.511,13.453,2.702,19.895,5.085c4.129,1.527,8.166,3.322,12.174,5.152
		c4.904,2.239,9.485,5.097,14.035,7.962c3.092,1.947,6.029,4.182,8.835,6.528c2.337,1.953,4.745,3.845,6.946,5.944
		c1.456,1.389,2.742,2.981,4.214,4.372c2.779,2.628,5.268,5.541,7.624,8.513c3.228,4.071,6.244,8.336,8.595,13.015
		C475.943,594.083,476.432,594.71,476.944,595.503z"/>
	<path fill="#FFFFFF" stroke="#B39C77" stroke-miterlimit="10" d="M375.554,280.699c2.335-3.878,4.455-7.599,7.021-11.053
		c3.201-4.308,6.587-8.436,10.227-12.396c1.991-2.166,4.238-4.018,6.238-6.136c2.372-2.512,5.207-4.439,7.81-6.655
		c2.779-2.365,5.917-4.164,8.868-6.25c3.535-2.499,7.453-4.24,11.181-6.352c4.766-2.7,9.962-4.216,14.979-6.237
		c4.706-1.896,9.609-2.921,14.519-3.924c3.224-0.659,6.503-1.11,9.803-1.379c3.143-0.256,6.275-0.555,9.589-0.453
		c-0.336,0.642-0.579,1.201-0.904,1.709c-3.127,4.889-6.335,9.729-9.968,14.255c-1.783,2.221-3.66,4.38-5.602,6.48
		c-2.433,2.633-5.084,5.021-7.669,7.49c-2.341,2.236-4.956,4.094-7.379,6.194c-2.572,2.229-5.547,3.827-8.245,5.827
		c-3.554,2.634-7.592,4.334-11.379,6.509c-4.447,2.554-9.313,4.045-14.027,5.928c-5.506,2.198-11.267,3.504-17.069,4.505
		c-3.902,0.673-7.839,1.343-11.841,1.387C379.719,280.171,377.735,280.494,375.554,280.699z"/>
	<path fill="#FFFFFF" stroke="#B39C77" stroke-miterlimit="10" d="M792.535,282.857c7.611,13.604,12.007,27.889,14.103,42.876
		c3.828,27.369-0.831,53.324-13.47,78.108c-9.991-19.055-15.136-39.074-15.247-60.381
		C777.812,322.184,782.695,302.133,792.535,282.857z"/>
	<path fill="#FFFFFF" stroke="#B39C77" stroke-miterlimit="10" d="M691.068,595.025c1.147-2.676,3.003-4.807,4.378-7.224
		c1.315-2.31,3.108-4.25,4.618-6.403c2.728-3.888,5.815-7.478,9.145-10.834c2.799-2.821,5.701-5.546,8.709-8.169
		c2.402-2.094,5.039-3.833,7.459-5.863c3.158-2.649,6.841-4.449,10.247-6.689c3.696-2.431,7.771-4.02,11.693-5.956
		c6.052-2.987,12.543-4.596,18.968-6.498c4.944-1.464,9.982-2.167,15.024-2.812c3.171-0.405,6.416-0.726,9.845-0.597
		c-0.997,1.751-1.835,3.426-2.858,4.978c-2.323,3.524-4.768,6.954-7.35,10.307c-2.622,3.406-5.487,6.583-8.406,9.691
		c-3.06,3.257-6.472,6.187-9.929,9.056c-2.64,2.191-5.494,4.058-8.209,6.125c-3.172,2.415-6.741,4.136-10.118,6.191
		c-4.124,2.51-8.635,4.106-12.959,6.141c-5.832,2.745-12.068,3.992-18.193,5.674c-1.522,0.418-3.165,0.405-4.673,0.856
		c-3.626,1.085-7.382,1.044-11.071,1.558C695.292,594.848,693.181,594.39,691.068,595.025z"/>
	<path fill="#FFFFFF" stroke="#B39C77" stroke-miterlimit="10" d="M373.936,405.119c-10.054-18.849-15.151-38.86-15.225-60.233
		c-0.074-21.366,4.997-41.381,14.718-60.606C393.384,324.654,393.676,364.83,373.936,405.119z"/>
	<path fill="#FFFFFF" stroke="#B39C77" stroke-miterlimit="10" d="M359.555,315.428c-0.284,1.663-0.477,3.347-0.87,4.984
		c-0.764,3.181-1.042,6.426-1.455,9.656c-0.8,6.251-0.882,12.533-0.728,18.814c0.096,3.937,0.474,7.86,0.932,11.783
		c0.743,6.363,2.032,12.607,3.659,18.779c1.149,4.356,2.662,8.607,4.227,12.843c1.059,2.866,2.468,5.565,3.565,8.409
		c0.867,2.249,2.176,4.329,3.315,6.471c0.327,0.616,0.352,1.163-0.004,1.775c-2.406,4.129-4.272,8.512-6.051,12.936
		c-1.948,4.845-3.589,9.792-4.919,14.842c-1.126,4.275-2.054,8.595-2.709,12.967c-0.608,4.058-1.107,8.124-1.352,12.233
		c-0.138,2.324-0.032,4.641-0.19,6.953c-0.178,2.601-0.143,5.199,0.014,7.796c0.215,3.555,0.54,7.096,0.945,10.639
		c0.513,4.494,1.411,8.898,2.333,13.31c0.074,0.355,0.403,0.672,0.218,1.078c-3.871-5.231-14.697-49.995-15.853-61.105
		c-2.213-21.28-2.645-42.47-0.197-63.743C346.865,355.723,351.949,335.283,359.555,315.428z"/>
	<path fill="#FFFFFF" stroke="#B39C77" stroke-miterlimit="10" d="M807.427,498.912c0.267-1.47,0.543-2.938,0.798-4.41
		c0.477-2.755,0.904-5.515,1.293-8.286c0.983-7.002,1.092-14.03,0.932-21.065c-0.086-3.808-0.477-7.606-0.913-11.403
		c-0.698-6.074-1.83-12.055-3.412-17.937c-1.528-5.683-3.369-11.275-5.713-16.7c-0.993-2.298-2.059-4.567-3.014-6.884
		c-0.667-1.616-1.634-3.113-2.518-4.634c-0.414-0.712-0.592-1.378-0.15-2.124c2.415-4.077,4.276-8.416,6.032-12.804
		c2.236-5.587,4.12-11.286,5.52-17.143c1.028-4.303,1.849-8.635,2.472-13.023c0.776-5.464,1.212-10.927,1.276-16.442
		c0.018-1.585,0.312-3.201,0.176-4.787c-0.352-4.095-0.427-8.204-0.922-12.295c-0.623-5.147-1.402-10.254-2.603-15.296
		c-0.024-0.099,0.044-0.22,0.2-0.329c23.04,61.753,23.325,123.604,0.936,185.553C807.688,498.906,807.558,498.909,807.427,498.912z"
		/>
	<path fill="#FFFFFF" stroke="#B39C77" stroke-miterlimit="10" d="M395.17,563.672c3.764,2.897,7.095,6.263,10.883,9.125
		c3.6,2.72,7.373,5.148,11.135,7.621c3.372,2.218,7.05,3.777,10.537,5.725c4.508,2.519,9.376,4.07,14.229,5.685
		c2.98,0.992,5.899,2.206,8.987,2.826c4.172,0.837,8.339,1.679,12.58,2.172c4.765,0.555,9.526,1.046,14.323,0.948
		c1.227-0.025,1.45,0.938,1.838,1.598c3.514,5.984,7.358,11.722,11.761,17.106c2.429,2.97,5.092,5.712,7.66,8.542
		c1.718,1.893,3.821,3.43,5.654,5.226c2.339,2.292,5.131,4.012,7.575,6.141c2.801,2.44,6.077,4.099,9.058,6.224
		c3.494,2.491,7.458,4.094,11.19,6.135c5.274,2.884,10.956,4.646,16.606,6.526c0.232,0.077,0.473,0.035,0.635,0.314
		c0.097,0.168,0.358,0.241,0.828,0.532c-2.186-0.307-3.976-0.918-5.842-1.199c-4.658-0.7-9.288-1.585-13.872-2.687
		c-3.485-0.838-7.012-1.545-10.438-2.582c-5.728-1.735-11.432-3.568-17.065-5.586c-4.419-1.583-8.76-3.409-13.055-5.308
		c-4.729-2.091-9.426-4.275-14.027-6.633c-4.415-2.263-8.822-4.596-12.982-7.285c-3.113-2.012-6.411-3.722-9.421-5.898
		c-3.07-2.22-6.215-4.338-9.28-6.564c-2.729-1.981-5.492-3.935-8.058-6.114c-2.068-1.756-4.187-3.447-6.255-5.198
		c-2.616-2.216-5.163-4.52-7.65-6.881c-1.823-1.731-3.672-3.446-5.434-5.229c-2.555-2.583-5.158-5.131-7.599-7.82
		c-3.271-3.603-6.412-7.325-9.547-11.048C398.386,568.023,396.981,565.695,395.17,563.672z"/>
	<path fill="#FFFFFF" stroke="#B39C77" stroke-miterlimit="10" d="M548.999,159.52c-2.948,1.122-6.003,1.845-8.858,3.158
		c-2.827,1.301-5.705,2.493-8.535,3.788c-1.711,0.783-3.431,1.574-5.047,2.532c-3.581,2.123-7.236,4.163-10.598,6.599
		c-2.692,1.951-5.584,3.688-7.977,6.008c-1.686,1.635-3.64,2.936-5.282,4.606c-1.907,1.94-3.856,3.839-5.764,5.777
		c-4.869,4.947-9.127,10.384-13.048,16.105c-1.939,2.829-3.543,5.852-5.353,8.754c-0.467,0.748-0.925,1.082-1.855,1.11
		c-4.657,0.141-9.315,0.251-13.942,0.961c-5.835,0.895-11.554,2.286-17.237,3.831c-2.735,0.744-5.513,1.472-8.094,2.609
		c-4.726,2.082-9.679,3.722-14.118,6.372c-3.396,2.027-7.011,3.724-10.178,6.092c-2.804,2.097-5.906,3.822-8.475,6.173
		c-2.286,2.092-4.911,3.797-6.975,6.111c-0.921,1.033-2.001,1.852-3.107,2.706c1.155-1.548,2.261-3.136,3.476-4.635
		c2.77-3.418,5.574-6.808,8.407-10.174c0.893-1.061,1.879-2.049,2.824-3.067c2.674-2.881,5.419-5.699,8.199-8.479
		c2.846-2.845,5.628-5.78,8.69-8.379c4.171-3.54,8.271-7.163,12.608-10.524c5.01-3.884,10.09-7.641,15.352-11.166
		c3.78-2.533,7.676-4.87,11.56-7.239c3.938-2.402,8.086-4.373,12.088-6.626c4.199-2.364,8.71-4.019,12.998-6.148
		c4.915-2.44,10.156-3.961,15.192-6.03c7-2.876,14.357-4.494,21.581-6.593c6.043-1.755,12.208-2.832,18.4-3.827
		C546.951,159.763,547.95,159.435,548.999,159.52z"/>
	<path fill="#FFFFFF" stroke="#B39C77" stroke-miterlimit="10" d="M618.062,655.483c1.742-0.599,3.287-1.196,4.87-1.661
		c3.617-1.063,7.169-2.359,10.501-4.067c4.009-2.055,8.24-3.766,11.936-6.346c3.47-2.422,7.204-4.447,10.453-7.223
		c2.089-1.785,4.501-3.254,6.457-5.169c2.536-2.482,5.448-4.585,7.635-7.427c0.436-0.567,0.971-1.066,1.503-1.549
		c3.164-2.871,5.673-6.33,8.263-9.666c3.362-4.33,6.422-8.924,8.929-13.826c0.693-1.354,1.773-1.458,2.895-1.484
		c3.87-0.091,7.727-0.333,11.566-0.804c4.971-0.609,9.926-1.364,14.744-2.762c6.15-1.784,12.382-3.47,18.142-6.248
		c4.327-2.087,8.812-3.933,12.821-6.713c2.707-1.877,5.692-3.368,8.365-5.311c2.931-2.13,5.899-4.246,8.584-6.664
		c2.323-2.092,4.714-4.11,7.129-6.146c-1.176,1.479-2.408,2.917-3.517,4.445c-2.341,3.227-5.091,6.115-7.57,9.228
		c-1.486,1.866-3.234,3.535-4.797,5.362c-1.81,2.116-3.806,4.096-5.815,6.005c-3.471,3.297-6.784,6.76-10.435,9.887
		c-3.174,2.718-6.356,5.424-9.548,8.121c-2.426,2.05-5.042,3.836-7.504,5.821c-2.898,2.337-6.111,4.212-9.071,6.427
		c-2.989,2.238-6.3,3.92-9.339,6.036c-3.685,2.566-7.842,4.29-11.614,6.661c-3.954,2.485-8.333,4.033-12.416,6.209
		c-4.683,2.497-9.726,4.137-14.602,6.175c-6.082,2.542-12.462,4.155-18.687,6.242c-7.375,2.474-15,3.707-22.531,5.414
		c-1.747,0.396-3.54,0.672-5.325,0.776C619.417,655.266,619.024,656.201,618.062,655.483z"/>
	<path fill="#FFFFFF" stroke="#B39C77" stroke-miterlimit="10" d="M616.629,158.507c2.056,0.311,4.116,0.593,6.166,0.938
		c4.935,0.83,9.864,1.724,14.71,2.957c2.838,0.722,5.662,1.527,8.487,2.31c4.18,1.159,8.412,2.231,12.441,3.803
		c5.543,2.163,11.284,3.831,16.657,6.409c3.982,1.911,8.1,3.524,12.033,5.52c4.397,2.232,8.776,4.526,13.008,7.051
		c3.148,1.878,6.423,3.582,9.403,5.702c3.233,2.3,6.747,4.184,9.84,6.66c2.509,2.009,5.34,3.584,7.729,5.716
		c3.049,2.722,6.475,4.97,9.436,7.804c1.965,1.88,4.311,3.378,6.174,5.343c1.336,1.409,2.847,2.609,4.181,4.008
		c2.413,2.53,4.991,4.904,7.387,7.449c3.486,3.703,6.913,7.461,10.174,11.372c2.576,3.09,5.076,6.236,7.545,9.409
		c0.038,0.049,0.005,0.154,0.005,0.421c-1.227-1.073-2.029-2.392-3.284-3.283c-1.567-1.112-3.105-2.322-4.43-3.706
		c-2.165-2.26-4.871-3.774-7.297-5.668c-3.361-2.624-7.15-4.579-10.755-6.824c-4.003-2.492-8.359-4.131-12.572-6.129
		c-6.567-3.114-13.578-4.678-20.542-6.509c-4.538-1.193-9.122-1.729-13.743-2.233c-3.228-0.352-6.461-0.586-9.703-0.464
		c-1.07,0.04-1.648-0.388-2.1-1.233c-1.968-3.679-4.269-7.156-6.725-10.514c-2.37-3.241-4.878-6.378-7.501-9.438
		c-2.336-2.726-4.944-5.173-7.322-7.848c-1.743-1.961-4.011-3.444-5.927-5.265c-2.907-2.763-6.326-4.851-9.465-7.304
		c-2.49-1.946-5.383-3.363-8.084-5.032c-3.028-1.87-6.185-3.449-9.403-4.935C627.787,162.514,622.395,160.109,616.629,158.507z"/>
	<path fill="#FFFFFF" stroke="#B39C77" stroke-miterlimit="10" d="M381.605,296.452c0.941,1.144,2.004,2.213,2.779,3.46
		c0.469,0.755,0.98,1.508,1.562,2.106c3.23,3.322,6.188,6.886,9.587,10.071c3.388,3.175,6.842,6.252,10.528,9.047
		c4.351,3.3,8.914,6.285,13.673,9.013c4.334,2.484,8.877,4.435,13.398,6.49c6.289,2.86,12.887,4.649,19.612,6.064
		c1.808,0.38,3.597,0.832,5.383,1.311c1.199,0.322,2.471,0.376,3.784,0.561c-33.225,5.298-59.564,21.845-79.907,48.36
		c6.014-15.54,8.862-31.675,8.768-48.285C390.678,328.065,387.595,312.001,381.605,296.452z"/>
	<path fill="#FFFFFF" stroke="#B39C77" stroke-miterlimit="10" d="M697.143,485.293c2.028,2.594,4.215,5.017,6.305,7.512
		c2.686,3.206,5.754,5.998,8.645,8.977c1.159,1.194,2.701,2.021,3.835,3.234c2.764,2.955,6.349,4.836,9.404,7.409
		c1.712,1.442,3.706,2.598,5.694,3.653c3.058,1.622,5.834,3.735,9.049,5.077c2.161,0.902,4.353,1.764,6.416,2.861
		c3.521,1.872,7.31,2.99,11.069,4.184c2.818,0.895,5.73,1.491,8.58,2.274c2.23,0.612,4.46,1.17,6.728,1.584
		c1.541,0.281,3.1,0.46,5.021,0.739c-6.396,0.827-12.378,1.873-18.102,3.826c-5.7,1.945-11.481,3.762-16.868,6.525
		c-3.634,1.864-7.355,3.632-10.735,5.894c-3.178,2.128-6.568,3.956-9.521,6.433c-2.297,1.926-4.881,3.544-7.002,5.638
		c-2.534,2.502-5.486,4.579-7.638,7.481c-0.716,0.965-1.716,1.715-2.549,2.598c-2.88,3.05-5.481,6.334-8.149,9.641
		C708.996,548.958,708.933,517.125,697.143,485.293z"/>
	<path fill="#FFFFFF" stroke="#B39C77" stroke-miterlimit="10" d="M704.51,343.61c3.068-0.561,6.158-1.023,9.198-1.706
		c5.047-1.132,10.076-2.405,14.886-4.319c4.598-1.83,9.258-3.622,13.576-6.002c3.597-1.983,7.365-3.764,10.661-6.254
		c2.628-1.985,5.45-3.693,8.003-5.773c1.84-1.5,3.639-3.049,5.483-4.543c2.579-2.09,4.956-4.442,7.184-6.846
		c2.754-2.972,5.773-5.758,8.009-9.208c0.744-1.148,1.729-2.14,2.847-3.499c-5.999,15.797-8.824,31.831-8.689,48.345
		c0.135,16.496,3.198,32.463,9.272,47.854c-1.202-1.635-2.715-2.99-3.754-4.758c-0.676-1.151-1.791-1.999-2.679-3.013
		c-3.007-3.435-6.223-6.682-9.546-9.811c-1.703-1.604-3.663-2.932-5.403-4.5c-2.803-2.525-6.029-4.462-9.017-6.72
		c-2.788-2.107-5.906-3.591-8.852-5.391c-4.651-2.841-9.733-4.766-14.729-6.877c-6.315-2.667-12.92-4.282-19.612-5.628
		C709.077,344.504,706.791,344.15,704.51,343.61z"/>
	<path fill="#FFFFFF" stroke="#B39C77" stroke-miterlimit="10" d="M389.978,281.779c3.804-0.777,7.345-1.421,10.846-2.237
		c4.51-1.051,8.983-2.262,13.295-3.978c2.773-1.104,5.528-2.26,8.25-3.484c5.614-2.524,10.966-5.541,16.085-8.947
		c2.943-1.958,5.818-4.033,8.609-6.202c2.538-1.973,5.059-4.006,7.344-6.259c3.949-3.894,7.852-7.854,11.367-12.149
		c1.284-1.569,2.555-3.174,3.803-4.841c-11.587,31.742-11.481,63.422,0.236,95.106c-0.838-0.27-1.089-1.132-1.626-1.699
		c-0.577-0.609-1.267-1.188-1.617-1.92c-0.809-1.688-2.295-2.777-3.482-4.1c-2.473-2.758-5.049-5.424-7.785-7.953
		c-4.331-4.004-8.861-7.718-13.692-11.095c-3.767-2.632-7.705-4.961-11.717-7.189c-4.827-2.681-9.945-4.657-15.046-6.73
		c-4.498-1.828-9.118-3.11-13.798-4.21c-3.158-0.743-6.34-1.485-9.598-1.748C391.048,282.112,390.654,281.951,389.978,281.779z"/>
	<path fill="#FFFFFF" stroke="#B39C77" stroke-miterlimit="10" d="M696.645,359.052c3.487,4.49,7.087,8.857,11.155,12.797
		c3.066,2.969,6.202,5.86,9.495,8.596c4.15,3.448,8.653,6.366,13.087,9.391c1.549,1.057,3.327,1.771,4.927,2.761
		c4.789,2.963,10.029,4.923,15.19,7.089c5.589,2.346,11.396,3.855,17.302,5.068c1.838,0.378,3.702,0.679,5.514,1.108
		c0.942,0.223,2.027,0.225,2.919,0.801c-6.488,1.034-12.879,2.343-19.098,4.413c-5.378,1.789-10.63,3.893-15.726,6.368
		c-4.052,1.968-7.977,4.196-11.797,6.571c-3.176,1.975-6.277,4.12-9.166,6.489c-2.318,1.901-4.778,3.66-6.911,5.762
		c-1.883,1.856-3.995,3.512-5.695,5.496c-2.167,2.53-4.769,4.68-6.668,7.402c-1.313,1.882-2.96,3.457-4.243,5.346
		c5.706-15.425,8.605-31.292,8.559-47.762C705.445,390.283,702.394,374.447,696.645,359.052z"/>
	<path fill="#FFFFFF" stroke="#B39C77" stroke-miterlimit="10" d="M470.332,486.292c-5.705,15.346-8.616,31.197-8.525,47.537
		c0.091,16.271,2.947,32.077,8.813,47.339c-1.757-2.766-4.418-4.729-6.149-7.459c-0.178-0.28-0.457-0.498-0.696-0.737
		c-2.412-2.414-4.745-4.915-7.258-7.219c-3.445-3.158-7.024-6.148-10.75-9c-3.858-2.953-8.026-5.359-12.082-7.959
		c-3.096-1.985-6.583-3.294-9.861-4.967c-5.646-2.882-11.73-4.432-17.694-6.402c-5.217-1.723-10.592-2.36-15.655-3.313
		c15.686-2.369,30.591-7.606,44.436-15.925C448.79,509.849,460.461,499.114,470.332,486.292z"/>
	<path fill="#FFFFFF" stroke="#B39C77" stroke-miterlimit="10" d="M679.634,359.028c-11.592,31.92-11.553,63.691,0.411,95.796
		c-1.438-2.008-2.921-3.484-4.06-5.286c-0.909-1.439-2.376-2.486-3.503-3.81c-2.514-2.955-5.426-5.525-8.229-8.205
		c-3.48-3.328-7.392-6.103-11.117-9.114c-1.132-0.915-2.463-1.578-3.656-2.423c-2.759-1.953-5.668-3.645-8.653-5.227
		c-4.124-2.186-8.206-4.465-12.618-6.031c-5.323-1.889-10.532-4.152-16.105-5.251c-3.558-0.702-7.072-1.663-10.709-1.929
		c-0.466-0.034-0.826-0.398-1.327-0.351c1.706-0.182,3.356-0.514,4.99-0.912c6.981-1.7,14.055-3.139,20.697-5.939
		c2.591-1.093,5.247-2.083,7.76-3.377c1.079-0.556,2.244-0.951,3.296-1.548c4.21-2.388,8.491-4.665,12.492-7.396
		c3.023-2.064,6.144-4.06,8.839-6.508c2.62-2.38,5.412-4.565,7.927-7.088c2.616-2.624,5.15-5.32,7.628-8.062
		C675.787,364.054,677.634,361.521,679.634,359.028z"/>
	<path fill="#FFFFFF" stroke="#B39C77" stroke-miterlimit="10" d="M566.575,280.938c-2.556,0.698-4.907,1.109-7.249,1.572
		c-5.527,1.092-11.015,2.44-16.248,4.532c-2.961,1.183-5.95,2.329-8.854,3.663c-1.676,0.77-3.373,1.508-4.992,2.386
		c-5.98,3.243-11.727,6.847-17.225,10.874c-3.073,2.251-6.044,4.658-8.779,7.239c-3.13,2.955-6.515,5.731-9.033,9.319
		c-0.748,1.065-1.879,1.812-2.683,2.861c-1.416,1.848-2.773,3.746-4.576,5.68c11.644-31.902,11.516-63.52-0.081-95.159
		c0.937,1.105,2.064,2.106,2.754,3.349c0.589,1.06,1.387,1.919,2.171,2.722c2.584,2.649,4.897,5.54,7.639,8.06
		c2.994,2.752,6.072,5.382,9.18,8.001c2.6,2.191,5.504,3.903,8.162,5.966c3.297,2.56,7.108,4.191,10.633,6.327
		c4.536,2.748,9.551,4.353,14.373,6.428c4.885,2.102,10.01,3.351,15.146,4.53C560.032,280.003,563.194,280.603,566.575,280.938z"/>
	<path fill="#FFFFFF" stroke="#B39C77" stroke-miterlimit="10" d="M600.033,280.831c1.204-0.235,2.4-0.517,3.612-0.698
		c4.715-0.702,9.328-1.829,13.878-3.238c6.183-1.914,12.172-4.334,17.946-7.234c4.019-2.019,7.991-4.168,11.76-6.63
		c2.96-1.934,5.802-4.06,8.616-6.206c2.386-1.82,4.816-3.63,6.943-5.732c3.406-3.368,6.851-6.698,10.012-10.325
		c2.165-2.484,3.962-5.27,6.357-7.592c-11.584,31.75-11.481,63.441,0.235,95.149c-2.522-3.461-5.401-6.604-8.219-9.79
		c-1.56-1.764-3.296-3.384-5.056-4.974c-1.485-1.342-2.876-2.784-4.409-4.093c-3.657-3.122-7.474-6.01-11.405-8.782
		c-3.43-2.419-7.133-4.328-10.703-6.483c-4.36-2.633-9.136-4.278-13.742-6.334c-4.972-2.22-10.217-3.51-15.473-4.765
		c-2.551-0.609-5.174-0.913-7.732-1.498C601.789,281.41,600.963,281.049,600.033,280.831z"/>
	<path fill="#FFFFFF" stroke="#B39C77" stroke-miterlimit="10" d="M574.982,391.934c-1.073-1.27-2.078-2.224-2.798-3.359
		c-1.618-2.552-3.928-4.483-5.837-6.771c-1.967-2.357-4.407-4.261-6.561-6.436c-2.37-2.393-5.091-4.328-7.627-6.499
		c-2.424-2.074-5.218-3.597-7.695-5.537c-2.929-2.294-6.249-3.84-9.408-5.688c-4.982-2.913-10.373-4.936-15.716-7.083
		c-4.148-1.667-8.423-2.826-12.738-3.865c-3.81-0.918-7.657-1.712-11.716-2.053c5.482-1.254,10.891-2.24,16.17-3.751
		c3.208-0.918,6.483-1.762,9.503-3.134c3.981-1.808,8.148-3.229,11.948-5.412c3.942-2.264,8.033-4.304,11.734-6.95
		c2.775-1.984,5.665-3.833,8.288-6.006c4.721-3.91,9.193-8.11,13.394-12.581c1.869-1.989,3.754-3.992,5.357-6.189
		c1.032-1.415,2.254-2.662,3.271-4.112C563.028,328.269,563.066,359.97,574.982,391.934z"/>
	<path fill="#FFFFFF" stroke="#B39C77" stroke-miterlimit="10" d="M573.728,171.026c-11.119,31.612-10.992,63.035,0.734,94.436
		c-0.633-0.048-0.689-0.577-0.952-0.894c-0.269-0.324-0.588-0.611-0.827-0.954c-1.394-2.006-2.936-3.884-4.686-5.591
		c-1.26-1.228-2.084-2.818-3.446-3.979c-3.508-2.989-6.631-6.39-10.228-9.309c-2.86-2.321-5.913-4.349-8.805-6.601
		c-3.088-2.404-6.626-4.018-9.904-6.078c-4.202-2.64-8.851-4.295-13.345-6.308c-6.777-3.037-13.925-4.673-21.132-6.211
		c-2.285-0.488-4.525-1.165-7.026-1.251c0.902-0.777,1.909-0.562,2.769-0.688c5.047-0.74,10.006-1.836,14.887-3.306
		c6.312-1.901,12.45-4.279,18.354-7.192c3.921-1.935,7.82-3.993,11.457-6.404c3.01-1.996,6.171-3.827,8.921-6.188
		c2.441-2.096,5.071-3.962,7.429-6.143c2.317-2.144,4.518-4.418,6.709-6.693c1.712-1.777,3.371-3.611,4.982-5.481
		c1.254-1.457,2.398-3.009,3.591-4.518C573.382,171.457,573.556,171.242,573.728,171.026z"/>
	<path fill="#FFFFFF" stroke="#B39C77" stroke-miterlimit="10" d="M566.624,407.416c-6.828,1.049-13.419,2.259-19.695,4.555
		c-5.188,1.898-10.458,3.673-15.362,6.282c-3.574,1.901-7.234,3.693-10.591,5.931c-3.078,2.052-6.302,3.934-9.144,6.311
		c-2.495,2.087-5.19,3.949-7.516,6.206c-1.533,1.488-3.075,2.986-4.616,4.468c-2.7,2.597-5.18,5.395-7.587,8.24
		c-1.507,1.781-3.054,3.532-4.511,5.378c5.56-15.404,8.393-31.208,8.309-47.599c-0.084-16.343-3.136-32.054-9.017-47.585
		c1.144,1.211,1.954,2.28,2.722,3.398c0.638,0.929,1.316,1.866,2.137,2.627c2.524,2.344,4.496,5.175,7.067,7.513
		c2.819,2.564,5.634,5.13,8.483,7.666c2.539,2.26,5.384,4.067,8.057,6.122c3.089,2.374,6.603,4.052,9.862,6.134
		c4.083,2.608,8.605,4.207,12.923,6.275c5.41,2.591,11.181,4.021,16.938,5.508c1.249,0.323,2.601,0.339,3.786,0.802
		c2.316,0.905,4.716,1.188,7.147,1.414C566.156,407.077,566.286,407.216,566.624,407.416z"/>
	<path fill="#FFFFFF" stroke="#B39C77" stroke-miterlimit="10" d="M591.937,422.496c1.507,1.168,2.15,2.715,3.232,3.903
		c1.581,1.737,3.108,3.526,4.601,5.34c1.82,2.211,4.104,3.954,5.984,6.124c1.522,1.757,3.57,3.046,5.285,4.649
		c2.477,2.315,5.324,4.135,7.991,6.194c3.279,2.531,6.936,4.455,10.429,6.645c4.099,2.57,8.564,4.279,12.906,6.303
		c6.887,3.212,14.178,4.973,21.503,6.759c2.747,0.67,5.5,1.097,8.429,1.589c-2.728,0.378-5.29,0.864-7.849,1.375
		c-3.067,0.612-6.146,1.223-9.107,2.207c-6.042,2.008-12.073,4.092-17.805,6.881c-3.857,1.877-7.695,3.875-11.261,6.241
		c-3.046,2.021-6.291,3.801-9.06,6.206c-2.894,2.513-6.106,4.639-8.789,7.415c-1.663,1.721-3.825,3.023-5.238,4.907
		c-1.757,2.344-4.184,4.028-5.804,6.446c-1.473,2.198-3.421,4.004-4.997,6.147c5.682-15.353,8.595-31.162,8.551-47.552
		C600.894,453.852,597.88,438.033,591.937,422.496z"/>
	<path fill="#FFFFFF" stroke="#B39C77" stroke-miterlimit="10" d="M671.456,343.706c-1.5,0.748-3.018,0.744-4.449,0.988
		c-6.479,1.102-12.85,2.688-18.964,5.036c-3.948,1.516-7.935,3.028-11.706,4.996c-4.438,2.316-8.844,4.702-13.03,7.446
		c-2.922,1.915-5.779,3.958-8.48,6.171c-2.451,2.009-5.183,3.772-7.265,6.116c-2.347,2.642-5.421,4.548-7.338,7.619
		c-0.904,1.448-2.485,2.384-3.519,3.801c-1.251,1.715-2.618,3.345-3.95,5c-0.169,0.21-0.331,0.48-0.67,0.505
		c11.45-31.565,11.349-63.088-0.262-94.627C612.292,322.622,638.451,338.796,671.456,343.706z"/>
	<path fill="#FFFFFF" stroke="#B39C77" stroke-miterlimit="10" d="M487.74,581.414c11.687-31.828,11.572-63.601-0.117-95.406
		c0.883,1.159,1.686,2.389,2.663,3.463c2.968,3.261,5.604,6.811,8.958,9.744c1.5,1.312,2.817,2.869,4.335,4.203
		c2.976,2.617,6.035,5.118,9.199,7.514c3.438,2.604,7.178,4.7,10.751,7.067c3.658,2.423,7.691,3.99,11.545,5.962
		c6.044,3.093,12.582,4.723,19.008,6.73c3.102,0.969,6.306,1.321,9.41,2.191c1.072,0.3,2.244,0.245,3.589,0.373
		c-1.798,0.761-3.546,0.882-5.22,1.156c-3.47,0.567-6.91,1.303-10.223,2.396c-5.64,1.861-11.434,3.436-16.707,6.188
		c-4.53,2.364-9.294,4.329-13.455,7.404c-2.415,1.784-5.193,3.058-7.505,5.004c-2.49,2.095-5.193,3.913-7.638,6.07
		c-4.265,3.763-8.27,7.798-12.095,11.985c-2.02,2.211-3.831,4.65-5.793,6.939C488.177,580.71,488.392,581.287,487.74,581.414z"/>
	<path fill="#FFFFFF" stroke="#B39C77" stroke-miterlimit="10" d="M470.209,454.926c-1.382-1.082-2.174-2.389-3.079-3.554
		c-1.082-1.393-2.17-2.81-3.409-4.021c-2.532-2.476-4.667-5.33-7.443-7.58c-1.942-1.574-3.594-3.494-5.586-5.029
		c-1.227-0.945-2.474-1.869-3.644-2.881c-3.415-2.953-7.312-5.217-11.06-7.679c-2.646-1.739-5.572-3.053-8.378-4.542
		c-3.365-1.785-6.832-3.279-10.344-4.693c-1.935-0.779-4.009-1.227-5.906-2.079c-3.095-1.39-6.386-2.096-9.638-2.848
		c-3.117-0.72-6.258-1.485-9.478-1.706c-0.669-0.046-1.274-0.443-1.982-0.306c2.969-0.502,5.954-0.887,8.818-1.713
		c4.02-1.159,8.114-2.047,12.083-3.408c2.41-0.827,4.86-1.571,7.154-2.656c2.289-1.083,4.652-1.998,6.915-3.133
		c1.682-0.844,3.421-1.594,5.036-2.551c3.653-2.165,7.372-4.256,10.823-6.717c2.672-1.906,5.491-3.67,7.905-5.889
		c1.692-1.556,3.531-2.94,5.164-4.554c2.443-2.415,4.915-4.803,7.276-7.297c2.566-2.711,5.04-5.51,7.208-8.563
		c0.421-0.592,0.908-1.137,1.453-1.814C458.508,391.488,458.506,423.1,470.209,454.926z"/>
	<path fill="#FFFFFF" stroke="#B39C77" stroke-miterlimit="10" d="M574.913,422.886c-11.396,31.597-11.404,63.115,0.121,94.706
		c-0.943-1.117-1.858-2.26-2.835-3.346c-1.261-1.403-2.267-3.008-3.608-4.351c-2.167-2.173-4.179-4.506-6.414-6.605
		c-3.35-3.146-6.84-6.13-10.435-9.011c-3.526-2.826-7.408-5.081-11.1-7.627c-2.81-1.938-6.073-3.197-9.065-4.862
		c-5.225-2.906-10.921-4.513-16.447-6.607c-5.125-1.941-10.484-2.847-15.789-4.011c-1.086-0.238-2.221-0.249-3.353-0.473
		c1.085-0.517,2.3-0.565,3.435-0.762c2.441-0.425,4.845-0.918,7.229-1.623c3.998-1.183,8.035-2.235,11.995-3.546
		c2.959-0.98,5.806-2.251,8.6-3.616c3.163-1.545,6.447-2.852,9.446-4.726c3.322-2.076,6.787-3.956,9.936-6.267
		c2.816-2.067,5.851-3.91,8.341-6.354c2.417-2.372,5.232-4.284,7.44-6.921c1.27-1.516,2.862-2.82,4.211-4.323
		c2.55-2.841,5.132-5.652,7.331-8.783C574.196,423.431,574.456,423.11,574.913,422.886z"/>
	<path fill="#FFFFFF" stroke="#B39C77" stroke-miterlimit="10" d="M382.948,518.211c11.41-31.632,11.266-63.041-0.2-94.474
		c0.45,0.256,0.853,0.486,0.971,1.08c0.104,0.522,0.672,0.74,0.956,1.152c1.057,1.534,2.579,2.704,3.611,4.2
		c2.01,2.914,4.831,5.023,7.106,7.669c1.706,1.985,4.021,3.432,5.921,5.268c2.449,2.366,5.342,4.129,7.99,6.219
		c2.892,2.283,6.169,3.955,9.218,5.975c4.18,2.769,8.833,4.497,13.267,6.709c5.379,2.683,11.142,4.124,16.839,5.825
		c3.537,1.056,7.132,1.813,10.754,2.471c0.982,0.178,1.983,0.253,3.335,0.42c-6.07,0.904-11.781,1.852-17.243,3.74
		c-5.613,1.94-11.331,3.652-16.652,6.356c-3.531,1.794-7.143,3.487-10.46,5.626c-3.392,2.188-6.919,4.2-10.085,6.737
		c-2.438,1.954-4.999,3.774-7.286,5.889c-1.657,1.532-3.375,3.011-4.959,4.623c-2.534,2.579-5.168,5.078-7.497,7.833
		c-1.474,1.743-2.89,3.555-4.307,5.357C383.883,517.324,383.526,517.715,382.948,518.211z"/>
	<path fill="#FFFFFF" stroke="#B39C77" stroke-miterlimit="10" d="M680.146,580.364c-3.435-4.344-7.122-8.471-10.918-12.494
		c-1.728-1.831-3.781-3.353-5.567-5.134c-2.962-2.955-6.447-5.251-9.702-7.83c-2.25-1.782-4.825-3.15-7.209-4.77
		c-1.722-1.17-3.487-2.255-5.347-3.186c-1.908-0.955-3.867-1.817-5.729-2.854c-5.541-3.085-11.611-4.771-17.538-6.865
		c-4.694-1.658-9.583-2.335-14.38-3.462c-1.124-0.264-2.312-0.258-3.816-0.412c3.651-0.533,6.956-1.031,10.178-1.877
		c3.643-0.957,7.214-2.186,10.841-3.207c2.902-0.817,5.786-1.769,8.467-3.063c4.356-2.102,8.86-3.931,13.006-6.451
		c3.133-1.904,6.263-3.829,9.269-5.924c2.867-1.999,5.673-4.112,8.322-6.388c3.753-3.223,7.439-6.543,10.76-10.222
		c2.948-3.266,5.93-6.512,8.472-10.122c0.165-0.234,0.382-0.433,0.846-0.95C668.423,517.137,668.481,548.735,680.146,580.364z"/>
	<path fill="#FFFFFF" stroke="#B39C77" stroke-miterlimit="10" d="M591.68,265.525c11.53-31.982,11.357-63.828-0.513-95.701
		c1.172,1.42,2.441,2.772,3.493,4.276c1.647,2.355,3.683,4.364,5.581,6.486c2.097,2.345,4.452,4.452,6.751,6.61
		c4.178,3.923,8.639,7.469,13.334,10.735c4.22,2.936,8.681,5.451,13.204,7.896c4.648,2.512,9.591,4.233,14.446,6.224
		c4.694,1.925,9.553,3.083,14.444,4.218c2.56,0.594,5.136,1.122,8.096,1.366c-2.282,0.435-4.282,0.655-6.182,1.212
		c-3.895,1.143-7.916,1.798-11.762,3.124c-2.328,0.802-4.736,1.372-6.998,2.37c-2.925,1.291-5.843,2.597-8.772,3.879
		c-5.495,2.405-10.609,5.539-15.509,8.913c-3.47,2.389-6.888,4.924-10.106,7.736c-3.62,3.163-7.08,6.469-10.433,9.888
		c-2.672,2.724-5.176,5.625-7.409,8.73C592.826,264.208,591.976,264.626,591.68,265.525z"/>
	<path fill="#FFFFFF" stroke="#B39C77" stroke-miterlimit="10" d="M575.58,643.98c-1.5-2.67-3.849-4.621-5.716-6.969
		c-1.595-2.006-3.259-3.957-5.317-5.542c-0.719-0.553-1.24-1.364-1.853-2.055c-1.405-1.583-3.224-2.704-4.707-4.198
		c-2.453-2.471-5.48-4.223-8.098-6.458c-2.606-2.225-5.635-3.715-8.401-5.64c-2.852-1.985-5.969-3.515-9.074-5.06
		c-6.845-3.407-13.969-6.009-21.336-8.101c-3.557-1.01-7.158-1.707-10.735-2.555c-1.406-0.333-2.894-0.284-4.395-0.743
		c5.127-0.743,10.145-1.563,14.966-3.129c5.488-1.783,11.056-3.407,16.292-5.864c4.187-1.965,8.364-4.021,12.292-6.448
		c3.176-1.963,6.498-3.782,9.381-6.162c3.146-2.597,6.542-4.879,9.484-7.749c1.372-1.339,2.94-2.56,4.241-3.942
		c2.362-2.51,4.963-4.806,7.051-7.583c1.359-1.808,2.862-3.511,4.363-5.206c0.491-0.555,0.925-1.133,1.344-1.769
		C563.851,580.558,563.888,612.25,575.58,643.98z"/>
	<path fill="#FFFFFF" stroke="#B39C77" stroke-miterlimit="10" d="M672.652,596.075c-5.054,0.656-10.134,1.556-15.007,3.108
		c-4.299,1.369-8.653,2.644-12.833,4.395c-5.624,2.355-11.123,5.001-16.339,8.125c-3.02,1.808-6.168,3.539-8.863,5.81
		c-2.782,2.344-5.992,4.149-8.523,6.77c-2.301,2.382-5.156,4.185-7.107,6.927c-0.929,1.306-2.369,2.098-3.398,3.352
		c-2.567,3.126-5.376,6.053-7.751,9.393c5.703-15.343,8.634-31.187,8.573-47.552c-0.061-16.378-3.017-32.232-8.824-47.584
		c1.032,1.182,1.903,2.443,2.922,3.59c1.279,1.44,2.432,2.995,3.738,4.408c2.137,2.311,4.346,4.556,6.541,6.813
		c1.437,1.478,3.284,2.528,4.658,4.022c2.329,2.533,5.338,4.142,7.898,6.332c2.679,2.292,5.741,3.973,8.691,5.84
		c2.357,1.492,4.739,2.932,7.25,4.164c6.108,2.997,12.302,5.762,18.841,7.712c5.45,1.625,10.921,3.152,16.547,4.044
		C670.652,595.9,671.656,595.967,672.652,596.075z"/>
	<path fill="#FFFFFF" stroke="#B39C77" stroke-miterlimit="10" d="M784.204,422.449c-5.554,15.269-8.367,30.991-8.308,47.22
		c0.059,16.228,2.973,31.922,8.863,47.201c-0.938-0.546-1.287-1.485-1.936-2.139c-0.674-0.678-1.243-1.468-1.81-2.243
		c-1.619-2.213-3.726-3.987-5.474-6.071c-2.311-2.755-5.087-5.012-7.65-7.492c-1.74-1.683-3.813-3.016-5.626-4.63
		c-3.22-2.867-6.975-4.966-10.474-7.429c-2.841-2-6.094-3.348-9.121-5.057c-5.084-2.87-10.605-4.621-15.997-6.736
		c-5.94-2.33-12.148-3.403-18.327-4.675c-1.058-0.218-2.157-0.239-3.258-0.474c1.914-0.359,3.852-0.62,5.737-1.093
		c7.132-1.792,14.34-3.353,21.135-6.267c3.67-1.574,7.369-3.116,10.899-4.97c3.576-1.878,7.029-4.016,10.407-6.237
		c3.373-2.218,6.815-4.425,9.8-7.111c2.696-2.426,5.869-4.354,8.064-7.347c0.484-0.66,1.272-1.091,1.877-1.672
		c3.223-3.097,6.041-6.567,8.881-9.999C782.637,424.322,783.518,423.476,784.204,422.449z"/>
	<path fill="#FFFFFF" stroke="#B39C77" stroke-miterlimit="10" d="M696.347,233.224c2.881,3.501,5.708,6.961,8.828,10.19
		c2.051,2.122,4.119,4.213,6.242,6.263c2.234,2.158,4.693,4.012,7.055,6.001c2.786,2.345,5.897,4.215,8.812,6.354
		c3.437,2.523,7.272,4.251,10.899,6.385c4.523,2.662,9.496,4.253,14.293,6.274c5.996,2.527,12.347,3.632,18.602,5.144
		c0.567,0.137,1.156,0.178,1.732,0.281c0.552,0.098,1.188-0.241,1.782,0.424c-0.897,0.132-1.705,0.178-2.473,0.375
		c-6.392,1.646-12.899,2.893-19.1,5.206c-3.46,1.29-6.824,2.844-10.211,4.325c-1.689,0.738-3.395,1.474-4.987,2.393
		c-3.865,2.232-7.8,4.382-11.454,6.927c-2.725,1.899-5.682,3.586-8.037,5.909c-2.563,2.528-5.779,4.312-7.964,7.249
		c-0.54,0.725-1.399,1.204-2.056,1.852c-3.59,3.541-6.893,7.332-9.896,11.385c-0.514,0.694-1.144,1.301-1.971,2.229
		c5.854-15.655,8.801-31.489,8.718-47.831C705.08,264.27,702.145,248.477,696.347,233.224z"/>
</g>
</svg>
