<svg width="43" height="39" viewBox="0 0 43 39" fill="none" xmlns="http://www.w3.org/2000/svg">
<path d="M9.28237 10.1875C8.4653 10.1875 7.80469 10.8481 7.80469 11.6652C7.80469 12.4823 8.4653 13.1429 9.28237 13.1429C10.0994 13.1429 10.7601 12.4823 10.7601 11.6652C10.7601 10.8655 10.0994 10.1875 9.28237 10.1875Z" fill="white"/>
<path d="M14.8644 10.1875C14.0473 10.1875 13.3867 10.8481 13.3867 11.6652C13.3867 12.4823 14.0473 13.1429 14.8644 13.1429C15.6815 13.1429 16.3421 12.4823 16.3421 11.6652C16.3421 10.8655 15.6815 10.1875 14.8644 10.1875Z" fill="white"/>
<path d="M20.4464 13.1604C21.2635 13.1604 21.9241 12.4998 21.9241 11.6828C21.9241 10.8657 21.2635 10.2051 20.4464 10.2051C19.6294 10.2051 18.9688 10.8657 18.9688 11.6828C18.9688 12.4998 19.6294 13.1604 20.4464 13.1604Z" fill="white"/>
<path d="M26.3202 19.8531C28.528 17.6627 29.7275 14.7421 29.7275 11.6302C29.7275 5.21536 24.5122 0 18.0973 0H11.6303C8.51842 0 5.59782 1.21692 3.40737 3.40737C2.90322 3.91152 2.45122 4.46782 2.05137 5.04151C0.695381 6.9712 0 9.24857 0 11.6129C0 15.1767 1.63415 18.5319 4.41567 20.7397C3.85937 21.9567 3.12922 23.0693 2.2426 24.0776C1.87753 24.4774 1.79061 25.0511 2.01661 25.5553C2.2426 26.042 2.71199 26.3549 3.25091 26.3549C6.60612 26.3549 9.75272 25.2945 12.4126 23.2605H18.0973C21.2091 23.2605 24.1297 22.0436 26.3202 19.8531ZM11.8215 21.5742L11.5955 21.748C9.38765 23.5039 6.76258 24.4948 3.94629 24.6339C4.88505 23.4691 5.64997 22.1653 6.20628 20.7745L6.44966 20.1487L5.91074 19.7662C3.26829 17.9234 1.66891 14.8638 1.66891 11.6129C1.66891 9.59626 2.27737 7.63181 3.42475 5.96289C3.75506 5.47613 4.1549 5.00674 4.58952 4.57213C6.46704 2.6946 8.97042 1.65153 11.6303 1.65153H18.0973C23.5908 1.65153 28.0586 6.11935 28.0586 11.6129C28.0586 14.2727 27.0156 16.7761 25.138 18.6536C23.2605 20.5311 20.7745 21.5742 18.0973 21.5742H11.8215Z" fill="white"/>
<path d="M38.9407 31.5875C40.9225 29.6231 42.0004 26.9806 42.0004 24.1991C42.0004 23.4515 41.9134 22.704 41.757 21.9739C41.2876 19.8182 40.1228 17.819 38.4365 16.3587C36.5416 14.6724 34.0904 13.751 31.5349 13.751H31.4653C31.3784 14.3421 31.2393 14.9157 31.0655 15.5068H31.5349C33.6558 15.5068 35.6898 16.2717 37.2892 17.6799C38.6799 18.8968 39.6534 20.5483 40.0359 22.3563C40.175 22.9474 40.2445 23.5732 40.2445 24.1991C40.2445 26.5286 39.3405 28.7191 37.689 30.3532C37.0284 31.0138 36.2635 31.5701 35.4116 31.9874L34.0209 32.6827L34.2816 34.2126C34.3338 34.5081 34.3859 34.821 34.4729 35.0992L34.6641 35.8989L33.9687 35.4643C33.169 34.9601 32.4389 34.3516 31.8304 33.6215L31.2046 32.8913H25.0852C23.2772 32.8913 21.5561 32.3524 20.0958 31.3094C18.0445 29.8664 16.7233 27.6412 16.4451 25.1726H14.6719C14.95 28.2323 16.5494 30.979 19.0875 32.7523C20.8434 33.9866 22.9121 34.6472 25.0852 34.6472H30.4049L30.5092 34.7689C32.4041 36.9767 35.0813 38.3501 37.9498 38.6109C36.9762 37.2027 36.3156 35.6033 36.0375 33.917L36.0027 33.6737L36.2287 33.5693C37.2196 33.0478 38.141 32.3872 38.9407 31.5875Z" fill="white"/>
</svg>
