<svg width="33" height="33" viewBox="0 0 33 33" fill="none" xmlns="http://www.w3.org/2000/svg">
<path d="M31.7967 15.9002C31.4065 15.8237 31.01 15.9037 30.68 16.1254C30.4067 16.3091 30.2061 16.5719 30.1018 16.8784L28.4059 16.1378C28.4094 16.0217 28.4111 15.9074 28.4111 15.796C28.4111 14.7989 28.2863 13.8088 28.04 12.8497L28.8007 12.3337C29.2829 12.756 29.9836 12.8823 30.5972 12.6157C31.4227 12.257 31.8182 11.3016 31.4973 10.4407L31.1392 9.47966C30.8146 8.60825 29.8806 8.14913 29.0132 8.43381C28.5743 8.57796 28.221 8.8855 28.0186 9.29974C27.9034 9.53533 27.8454 9.78804 27.8453 10.042L26.9822 10.1625C26.864 9.94576 26.7348 9.72611 26.5969 9.5073C26.4542 9.28101 26.155 9.21326 25.9288 9.35586C25.7025 9.49852 25.6347 9.7976 25.7773 10.0239C25.9401 10.2822 26.0893 10.5409 26.2207 10.7932C26.3527 11.0461 26.6309 11.1896 26.9125 11.1503L28.4688 10.933C28.6132 10.9129 28.7409 10.8287 28.8163 10.704C28.8918 10.5792 28.907 10.427 28.8578 10.2898C28.7909 10.1035 28.802 9.903 28.8889 9.72514C28.9756 9.5478 29.127 9.41611 29.3154 9.35424C29.6808 9.23438 30.0915 9.4424 30.2315 9.81801L30.5896 10.7791C30.7282 11.151 30.5584 11.5764 30.211 11.7274C29.8786 11.8718 29.4871 11.748 29.3 11.4395C29.2312 11.326 29.1188 11.2457 28.9891 11.2175C28.8595 11.1891 28.7238 11.2154 28.614 11.2898L27.3232 12.1654C27.0837 12.3278 26.9747 12.6246 27.0519 12.9042C27.311 13.8423 27.4424 14.8153 27.4424 15.796C27.4424 15.9567 27.4383 16.1246 27.4304 16.2952C27.4176 16.573 27.5799 16.8343 27.8342 16.9453L30.2542 18.0022C30.3888 18.061 30.5429 18.0555 30.6729 17.9874C30.803 17.9192 30.8951 17.7958 30.9234 17.6516L31.0001 17.2609C31.0268 17.1247 31.1051 17.007 31.2203 16.9296C31.3354 16.8521 31.4739 16.8242 31.6102 16.851C31.8914 16.9061 32.0753 17.1798 32.0202 17.461L31.6233 19.4836C31.5957 19.6244 31.5139 19.7444 31.3928 19.8217C31.2719 19.8988 31.1282 19.9222 30.9881 19.888C30.7233 19.8229 30.5531 19.5394 30.6087 19.2557L30.6193 19.2017C30.6479 19.0558 30.6079 18.9048 30.5108 18.7923C30.4138 18.6796 30.2693 18.6173 30.1219 18.6246L27.5041 18.744C27.227 18.7566 26.9819 18.9425 26.8943 19.2068C26.6518 19.939 26.33 20.6465 25.9376 21.3095C25.7914 21.5563 25.817 21.8693 26.0013 22.0882L27.1594 23.464C27.2454 23.5663 27.3699 23.6283 27.5032 23.6358C27.6365 23.643 27.7671 23.5951 27.8638 23.5031C28.1234 23.2562 28.518 23.235 28.8022 23.4525C28.956 23.5702 29.0547 23.7407 29.0803 23.9326C29.1058 24.1245 29.055 24.3149 28.9374 24.4687L28.6018 24.9073C28.3608 25.2222 27.9105 25.3032 27.5981 25.088C27.3326 24.905 27.2191 24.564 27.322 24.2587C27.4022 24.021 27.2876 23.7614 27.0578 23.6605L25.3895 22.9278C25.1242 22.8111 24.8145 22.877 24.6187 23.0919C23.8748 23.9087 23.0158 24.6046 22.0655 25.1604C21.8255 25.3005 21.6944 25.5786 21.7392 25.8522L22.1663 28.4565C22.1901 28.6014 22.2783 28.7277 22.4062 28.7999C22.5342 28.8721 22.6878 28.8823 22.8243 28.8278L23.1938 28.6799C23.3271 28.6266 23.4724 28.6301 23.603 28.6898C23.7335 28.7494 23.8313 28.8573 23.8785 28.9937C23.9678 29.2513 23.822 29.5483 23.5536 29.6556L21.6664 30.4106C21.5332 30.464 21.3879 30.4604 21.2573 30.4008C21.1268 30.3413 21.029 30.2333 20.9817 30.097C20.8924 29.8394 21.0381 29.5424 21.3063 29.435L21.3574 29.4146C21.4955 29.3594 21.6005 29.2439 21.6424 29.1012C21.6841 28.9585 21.6582 28.8046 21.5718 28.6835L20.0492 26.5503C19.8882 26.3244 19.5989 26.2196 19.33 26.2893C18.4423 26.5194 17.5246 26.6361 16.6024 26.6361C15.8722 26.6361 15.1401 26.5624 14.4267 26.417C14.1544 26.3615 13.8714 26.4811 13.722 26.715L12.1981 29.1051C12.1191 29.2289 12.1006 29.3819 12.1478 29.5211C12.1949 29.6602 12.3026 29.7703 12.4406 29.8207L12.4946 29.8403C12.6796 29.9078 12.8273 30.0433 12.9104 30.2218C12.9935 30.4003 13.0021 30.6006 12.9347 30.7856C12.9153 30.8388 12.9054 30.895 12.9054 30.9516C12.9054 31.1348 12.8513 31.2736 12.7532 31.3422C12.6551 31.4109 12.5063 31.4143 12.334 31.3514L10.4619 30.6687C10.087 30.5321 9.88743 30.114 10.0169 29.7369C10.0787 29.5571 10.2118 29.4109 10.3916 29.3251C10.5815 29.2345 10.8023 29.2233 10.9972 29.2943L11.04 29.3099C11.1796 29.361 11.335 29.3449 11.4613 29.2665C11.5877 29.1881 11.671 29.056 11.6873 28.9082L11.9976 26.1071C12.0281 25.8314 11.8827 25.5607 11.6357 25.4332C10.5033 24.8483 9.49006 24.0747 8.62446 23.1342C8.43394 22.927 8.13143 22.8594 7.87168 22.9661L5.58707 23.903C5.4603 23.9549 5.36149 24.0581 5.31512 24.187C5.26868 24.316 5.27908 24.4585 5.3436 24.5793C5.48859 24.8506 5.40366 25.1828 5.1461 25.3522C4.88061 25.5269 4.50887 25.4452 4.3177 25.1701L3.73252 24.3277C3.54484 24.0576 3.58954 23.6949 3.83424 23.5021C3.96076 23.4024 4.11776 23.3587 4.27598 23.3791C4.43544 23.3996 4.57649 23.4814 4.6733 23.6094C4.76087 23.7252 4.89585 23.7957 5.04103 23.8013C5.18569 23.8069 5.32616 23.747 5.42239 23.6382L7.03153 21.8195C7.22037 21.606 7.25421 21.2947 7.11568 21.0445C6.94266 20.7325 6.78172 20.4039 6.63744 20.0678C6.53179 19.822 6.24704 19.7083 6.00118 19.8139C5.75538 19.9195 5.64171 20.2043 5.74724 20.4501C5.8766 20.7511 6.01823 21.0469 6.16948 21.3318L5.01694 22.6346C4.83159 22.5209 4.62247 22.4468 4.39972 22.4181C3.98078 22.3643 3.56732 22.479 3.23465 22.7411C2.58825 23.2505 2.45753 24.1902 2.93706 24.8803L3.52224 25.7226C4.01055 26.4255 4.97774 26.6223 5.67852 26.1615C6.20261 25.8168 6.45519 25.2156 6.36704 24.63L8.05135 23.9392C8.91637 24.8475 9.91094 25.6066 11.0127 26.1996L10.7823 28.2802C10.5057 28.2723 10.2275 28.3298 9.97449 28.4505C9.55806 28.6492 9.24774 28.9941 9.10075 29.422C8.80096 30.2949 9.26273 31.2625 10.1301 31.5787L12.0022 32.2614C12.1901 32.3299 12.3788 32.3637 12.5606 32.3637C12.8345 32.3637 13.0926 32.2869 13.3086 32.1357C13.6476 31.8985 13.8502 31.5011 13.8722 31.0363C13.9978 30.6312 13.969 30.1999 13.7887 29.8127C13.6731 29.5645 13.5036 29.3522 13.2938 29.1885L14.4312 27.4046C16.0645 27.7084 17.7676 27.6637 19.3771 27.2758L20.4824 28.8245C20.0474 29.2182 19.8667 29.8377 20.0663 30.414C20.2011 30.803 20.4812 31.1112 20.8548 31.2819C21.2233 31.4501 21.6501 31.4603 22.0262 31.31L23.9135 30.555C24.6675 30.2534 25.0543 29.4282 24.7939 28.6765C24.6591 28.2875 24.3791 27.9793 24.0054 27.8086C23.6989 27.6686 23.3517 27.6379 23.0271 27.7184L22.7277 25.8933C23.6343 25.3422 24.4617 24.6725 25.1916 23.8989L26.3187 24.3939C26.2871 24.9729 26.5556 25.5461 27.0484 25.8857C27.7918 26.3979 28.8121 26.2266 29.3712 25.496L29.7068 25.0574C29.9817 24.6982 30.1003 24.2533 30.0406 23.8048C29.9809 23.3564 29.7502 22.958 29.3909 22.6831C28.8667 22.2819 28.1824 22.2279 27.6189 22.5056L26.8757 21.6226C27.2231 21.011 27.516 20.3668 27.7488 19.7026L29.6487 19.6159C29.7429 20.195 30.1649 20.6833 30.7572 20.8287C31.157 20.9269 31.5679 20.8591 31.9141 20.6381C32.2555 20.4201 32.496 20.0673 32.574 19.67L32.9708 17.6474C33.1288 16.842 32.6021 16.0582 31.7967 15.9002Z" fill="white"/>
<path d="M3.12076 17.2084L4.9363 17.6278C4.97583 17.8802 5.02472 18.1366 5.08219 18.3922C5.13276 18.6175 5.33271 18.7706 5.55436 18.7706C5.58949 18.7706 5.6252 18.7667 5.66092 18.7587C5.9219 18.7 6.086 18.441 6.02736 18.18C5.96065 17.8826 5.90646 17.5848 5.86642 17.2948C5.82825 17.0189 5.62068 16.7914 5.35002 16.729L2.77866 16.1351C2.63574 16.1021 2.48514 16.1358 2.36986 16.2267C2.25451 16.3176 2.18664 16.4559 2.18534 16.6028L2.1827 16.9038C2.17966 17.2408 1.90305 17.515 1.566 17.515C1.40551 17.515 1.25484 17.4522 1.14188 17.3382C1.02886 17.2242 0.967446 17.0731 0.968867 16.9126L0.985658 15.0446C0.987144 14.8733 1.05993 14.7057 1.18528 14.5848C1.30308 14.4712 1.45194 14.4102 1.6092 14.4149C1.93638 14.4235 2.20117 14.6971 2.19936 15.0247C2.19852 15.1731 2.26575 15.3136 2.3818 15.4061C2.49786 15.4987 2.65001 15.5329 2.79429 15.4989L5.34756 14.9003C5.61804 14.8368 5.8247 14.6088 5.86196 14.3328C6.05035 12.9357 6.50366 11.6075 7.20922 10.3851C7.35156 10.1383 7.32353 9.82685 7.13915 9.61011L5.92157 8.18012C5.82638 8.06839 5.68643 8.00562 5.53879 8.00995C5.392 8.01421 5.25502 8.0848 5.16641 8.20189L5.06088 8.34138C4.98203 8.44562 4.86707 8.51117 4.73713 8.52609C4.60764 8.54094 4.48035 8.50284 4.37941 8.41875C4.18863 8.25982 4.16293 7.95925 4.32212 7.74877L5.13315 6.67645C5.2906 6.4683 5.58807 6.42696 5.79622 6.58448C5.99113 6.73186 6.04105 7.00872 5.90995 7.21481C5.83387 7.33448 5.81404 7.4814 5.8557 7.61696C5.89736 7.75252 5.9963 7.86302 6.12636 7.91927L7.82895 8.65564C8.0929 8.76989 8.40103 8.70363 8.59568 8.4905C9.3708 7.64144 10.2693 6.92431 11.2664 6.35909C11.508 6.22204 11.6426 5.94589 11.6015 5.67167L11.2093 3.06202C11.1875 2.91677 11.1009 2.78929 10.974 2.7154C10.847 2.64146 10.6933 2.62919 10.5564 2.68189L10.1849 2.82481C10.0509 2.87621 9.90574 2.87085 9.77599 2.8095C9.64631 2.74821 9.54995 2.639 9.50455 2.50202C9.41872 2.24318 9.56836 1.94823 9.83825 1.84444L11.7354 1.11473C11.8694 1.06319 12.0145 1.06868 12.1443 1.13003C12.274 1.19132 12.3704 1.30053 12.4158 1.43751C12.5016 1.69636 12.3519 1.99131 12.082 2.09515L12.0308 2.11492C11.892 2.16833 11.7855 2.28244 11.7418 2.42452C11.6981 2.56661 11.722 2.72089 11.8068 2.84302L13.3003 4.99607C13.4583 5.22379 13.7457 5.33248 14.0156 5.26641C14.8574 5.06027 15.7281 4.95571 16.6046 4.95571H16.6049C16.8907 4.95571 17.1469 4.77559 17.2424 4.50776L17.7369 3.12402C17.7813 2.99989 17.7731 2.86298 17.7143 2.74505C17.6555 2.62706 17.5512 2.53806 17.4253 2.49873C17.0652 2.3861 16.8362 2.03244 16.8806 1.65787C16.9043 1.45856 17.009 1.27715 17.1753 1.14702C17.35 1.01036 17.5736 0.947522 17.7889 0.974711L18.4681 1.06022C18.9083 1.11563 19.2289 1.505 19.1829 1.92814C19.1473 2.2548 18.9186 2.51972 18.6003 2.60303C18.3671 2.66406 18.2143 2.88726 18.2417 3.12673L18.4136 4.62621C18.4463 4.91237 18.6578 5.14629 18.9399 5.20835C20.0218 5.44602 21.0586 5.84882 22.021 6.40539C22.2621 6.54489 22.5689 6.52087 22.7845 6.34585L24.8337 4.68252C24.9477 4.58998 25.0135 4.45067 25.0128 4.30381C25.0119 4.15702 24.9446 4.01842 24.8296 3.9271L24.5179 3.67956C24.4055 3.59037 24.3364 3.4625 24.3233 3.31945C24.3104 3.17665 24.3554 3.03819 24.4504 2.9295C24.6298 2.72406 24.9599 2.70326 25.1864 2.883L26.7784 4.14694C26.8908 4.23613 26.9599 4.364 26.9729 4.50699C26.9859 4.64978 26.9408 4.78825 26.8458 4.897C26.6664 5.10231 26.3361 5.12311 26.1099 4.94357L26.067 4.90947C25.9505 4.81692 25.798 4.78308 25.6535 4.81757C25.5088 4.85205 25.388 4.95106 25.3259 5.0861L24.2283 7.46868C24.1122 7.72068 24.1649 8.0237 24.3591 8.22268C24.4279 8.2932 24.4959 8.36618 24.5768 8.45408C24.758 8.65093 25.0644 8.66358 25.2613 8.48237C25.4581 8.30115 25.4707 7.99477 25.2896 7.79792C25.2553 7.76066 25.2231 7.72578 25.1918 7.69239L25.989 5.96197C26.5467 6.14435 27.1741 5.99381 27.5754 5.53443C27.8463 5.22437 27.9749 4.82829 27.9376 4.41916C27.9008 4.01577 27.6978 3.6401 27.3807 3.38835L25.7887 2.12447C25.1526 1.6195 24.2444 1.69306 23.7208 2.29232C23.45 2.60239 23.3213 2.99847 23.3587 3.4076C23.3893 3.7433 23.5349 4.05988 23.7659 4.30175L22.3304 5.46714C21.3927 4.94602 20.3927 4.55717 19.3527 4.30911L19.2462 3.37996C19.7386 3.10768 20.0839 2.60626 20.1463 2.03309C20.2492 1.08773 19.5508 0.220194 18.5894 0.0991015L17.9103 0.0135942C17.441 -0.0454342 16.9556 0.0895433 16.579 0.383975C16.2078 0.674274 15.9733 1.08612 15.919 1.54368C15.84 2.20888 16.1469 2.84451 16.6799 3.20397L16.3994 3.98871C15.5832 4.00266 14.772 4.10012 13.9822 4.27908L12.8982 2.71644C13.3384 2.32868 13.5274 1.7116 13.3355 1.13268C13.2059 0.741891 12.93 0.429958 12.5587 0.254293C12.1925 0.0811476 11.7658 0.0651957 11.3878 0.210571L9.49073 0.940224C8.73259 1.23175 8.33483 2.05169 8.58522 2.80685C8.71477 3.19764 8.9906 3.50958 9.36201 3.68524C9.66672 3.82932 10.0132 3.86465 10.3391 3.78851L10.6139 5.61736C9.65754 6.18123 8.78749 6.87523 8.02296 7.68393L6.92938 7.21099C7.01825 6.69324 6.82043 6.14435 6.38076 5.81175C6.07354 5.57938 5.69437 5.48038 5.31269 5.53353C4.93114 5.58642 4.59305 5.78482 4.36074 6.09204L3.54965 7.16437C3.07503 7.79172 3.16719 8.66966 3.75941 9.163C4.06586 9.4183 4.45226 9.53396 4.84776 9.4885C5.09711 9.45989 5.334 9.36566 5.53434 9.21951L6.26806 10.0814C5.59007 11.3044 5.14077 12.6218 4.93062 14.003L3.05637 14.4425C2.82884 13.8747 2.27834 13.4634 1.63484 13.4464C1.21589 13.4359 0.818906 13.5921 0.512526 13.8877C0.201497 14.1879 0.0207949 14.6063 0.0168553 15.0358L6.38673e-05 16.9039C-0.00368192 17.3248 0.157452 17.7213 0.453692 18.0202C0.749932 18.3192 1.14498 18.4838 1.56593 18.4838C2.33124 18.4839 2.97545 17.934 3.12076 17.2084Z" fill="white"/>
<path d="M14.2078 14.5646C14.4441 14.4394 14.5342 14.1462 14.4089 13.9098C14.2837 13.6736 13.9906 13.5833 13.754 13.7087C12.5965 14.3222 11.2771 14.1601 10.6173 13.3228C10.247 12.8532 10.1197 12.2308 10.2587 11.5705C10.4044 10.878 10.8211 10.2315 11.4319 9.75C12.0427 9.26847 12.7687 9.01466 13.476 9.03429C14.1505 9.05335 14.7259 9.32253 15.0962 9.79224C15.6522 10.4975 15.6451 11.5503 15.0782 12.4743C14.9383 12.7023 15.0097 13.0006 15.2378 13.1405C15.4658 13.2803 15.764 13.2089 15.9039 12.9809C16.6855 11.7071 16.667 10.2201 15.8569 9.19252C15.3059 8.49335 14.47 8.09326 13.5034 8.06601C12.5692 8.03888 11.6209 8.36748 10.8322 8.98922C10.0434 9.61095 9.50312 10.4569 9.31066 11.371C9.11149 12.3172 9.30537 13.2234 9.85645 13.9225C10.4367 14.6587 11.3453 15.0459 12.3229 15.0458C12.9456 15.0458 13.5963 14.8888 14.2078 14.5646Z" fill="white"/>
<path d="M23.6039 10.2206C23.6039 9.21638 22.6694 8.39941 21.5207 8.39941C20.3721 8.39941 19.4375 9.21638 19.4375 10.2206C19.4375 11.2248 20.3721 12.0417 21.5207 12.0417C22.6694 12.0417 23.6039 11.2248 23.6039 10.2206ZM20.4063 10.2206C20.4063 9.75055 20.9062 9.36815 21.5208 9.36815C22.1353 9.36815 22.6352 9.75055 22.6352 10.2206C22.6352 10.6906 22.1353 11.073 21.5208 11.073C20.9062 11.073 20.4063 10.6906 20.4063 10.2206Z" fill="white"/>
<path d="M17.9834 18.5454C17.9834 17.3147 16.9822 16.3135 15.7515 16.3135C14.5208 16.3135 13.5195 17.3147 13.5195 18.5454C13.5195 19.7761 14.5208 20.7773 15.7515 20.7773C16.9822 20.7773 17.9834 19.7761 17.9834 18.5454ZM14.4883 18.5454C14.4883 17.8489 15.055 17.2822 15.7516 17.2822C16.448 17.2822 17.0147 17.8489 17.0147 18.5454C17.0147 19.2419 16.4481 19.8085 15.7516 19.8085C15.055 19.8085 14.4883 19.2419 14.4883 18.5454Z" fill="white"/>
<path d="M24.2994 17.6351C24.2994 16.678 23.5208 15.8994 22.5637 15.8994C21.6067 15.8994 20.8281 16.678 20.8281 17.6351C20.8281 18.5921 21.6067 19.3707 22.5637 19.3707C23.5208 19.3707 24.2994 18.5921 24.2994 17.6351ZM21.7968 17.6351C21.7968 17.2122 22.1408 16.8682 22.5637 16.8682C22.9865 16.8682 23.3306 17.2122 23.3306 17.6351C23.3306 18.058 22.9865 18.402 22.5637 18.402C22.1409 18.4019 21.7968 18.058 21.7968 17.6351Z" fill="white"/>
<path d="M17.9431 25.4417C18.8809 25.4417 19.6439 24.6788 19.6439 23.7409C19.6439 22.8031 18.881 22.04 17.9431 22.04C17.0052 22.04 16.2422 22.803 16.2422 23.7409C16.2422 24.6788 17.0052 25.4417 17.9431 25.4417ZM17.9431 23.0088C18.3468 23.0088 18.6752 23.3372 18.6752 23.7409C18.6752 24.1446 18.3468 24.473 17.9431 24.473C17.5394 24.473 17.2109 24.1446 17.2109 23.7409C17.2109 23.3372 17.5394 23.0088 17.9431 23.0088Z" fill="white"/>
<path d="M10.3297 22.5823C11.2956 22.5823 12.0813 21.7965 12.0813 20.8307C12.0813 19.8649 11.2956 19.0791 10.3297 19.0791C9.3639 19.0791 8.57812 19.8649 8.57812 20.8307C8.57812 21.7965 9.3639 22.5823 10.3297 22.5823ZM10.3297 20.0478C10.7615 20.0478 11.1126 20.399 11.1126 20.8307C11.1126 21.2624 10.7614 21.6136 10.3297 21.6136C9.89806 21.6136 9.54686 21.2624 9.54686 20.8307C9.54686 20.399 9.89806 20.0478 10.3297 20.0478Z" fill="white"/>
<path d="M20.1938 14.7695C20.1938 14.502 19.977 14.2852 19.7094 14.2852H19.2812C19.0137 14.2852 18.7969 14.502 18.7969 14.7695C18.7969 15.037 19.0137 15.2539 19.2812 15.2539H19.7094C19.977 15.2539 20.1938 15.037 20.1938 14.7695Z" fill="white"/>
<path d="M13.5625 23.7207H14.0024C14.27 23.7207 14.4868 23.5038 14.4868 23.2363C14.4868 22.9688 14.27 22.752 14.0024 22.752H13.5625C13.2949 22.752 13.0781 22.9688 13.0781 23.2363C13.0781 23.5038 13.295 23.7207 13.5625 23.7207Z" fill="white"/>
<path d="M9.48629 16.666C9.75385 16.666 9.97065 16.4491 9.97065 16.1816C9.97065 15.9141 9.75385 15.6973 9.48629 15.6973H9.06249C8.79493 15.6973 8.57812 15.9141 8.57812 16.1816C8.57812 16.4491 8.79493 16.666 9.06249 16.666H9.48629Z" fill="white"/>
<path d="M18.0898 8.19237C18.3573 8.19237 18.5741 7.9755 18.5741 7.708C18.5741 7.4405 18.3573 7.22363 18.0898 7.22363H17.5C17.2324 7.22363 17.0156 7.4405 17.0156 7.708C17.0156 7.9755 17.2324 8.19237 17.5 8.19237H18.0898Z" fill="white"/>
<path d="M21.3125 21.1748C21.0449 21.1748 20.8281 21.3917 20.8281 21.6592C20.8281 21.9267 21.0449 22.1435 21.3125 22.1435H21.9637C22.2313 22.1435 22.4481 21.9267 22.4481 21.6592C22.4481 21.3917 22.2313 21.1748 21.9637 21.1748H21.3125Z" fill="white"/>
</svg>
