<svg width="36" height="33" viewBox="0 0 36 33" fill="none" xmlns="http://www.w3.org/2000/svg">
<path d="M34.3036 9.68529L29.5456 6.62357V4.0749C29.5456 3.25154 28.8753 2.58128 28.0519 2.58128H23.269L20.348 0.698735C19.0282 -0.228055 17.2573 -0.232193 15.9292 0.682185L12.9171 2.58128H8.26663C7.44328 2.58128 6.77301 3.25154 6.77301 4.0749V6.45394L1.77497 9.60668C1.77083 9.61081 1.76256 9.61495 1.75842 9.61909C1.71704 9.64805 1.09229 10.0742 0.604068 10.7734C0.591656 10.79 0.575106 10.8107 0.562694 10.8272C0.558556 10.8355 0.554419 10.8396 0.550282 10.8479C0.24411 11.303 0 11.8616 0 12.4988V30.3353C0 31.4359 0.89369 32.3337 1.99839 32.3337H34.0016C35.1022 32.3337 36 31.44 36 30.3353V12.656C35.9959 10.7817 34.4609 9.78458 34.3036 9.68529ZM29.5456 8.05927L33.6541 10.7031C33.6582 10.7072 33.6665 10.7114 33.6706 10.7114C33.6747 10.7155 33.8402 10.8148 34.043 11.0093L29.5497 13.9551V8.05927H29.5456ZM16.5829 1.69172C16.5912 1.68759 16.5995 1.68345 16.6036 1.67517C17.518 1.03801 18.7468 1.04628 19.657 1.68759C19.6653 1.69172 19.6695 1.69586 19.6777 1.70414L21.0307 2.57714H15.1803L16.5829 1.69172ZM7.98115 4.07076C7.98115 3.91354 8.10941 3.78528 8.26663 3.78528H28.0519C28.2092 3.78528 28.3374 3.91354 28.3374 4.07076V14.7537L20.77 19.7186L19.8722 19.1476C18.8461 18.407 17.4766 18.407 16.4464 19.1476L15.5072 19.7476L7.98115 14.8902V4.07076ZM2.42869 10.6204L6.77301 7.88136V14.1082L1.97357 11.0093C2.14734 10.8355 2.31697 10.699 2.42869 10.6204ZM1.20814 12.4946C1.20814 12.3333 1.24124 12.1719 1.29502 12.0188L14.3859 20.4634L1.20814 28.8831V12.4946ZM34.7877 30.327C34.7877 30.7615 34.436 31.1132 34.0016 31.1132H1.99839C1.56396 31.1132 1.21227 30.7615 1.21227 30.327V30.3188L17.1167 20.153C17.1291 20.1448 17.1373 20.1406 17.1498 20.1324C17.758 19.6897 18.573 19.6897 19.1771 20.1324C19.1895 20.1406 19.1978 20.1489 19.2102 20.153L34.7919 30.0788V30.327H34.7877ZM34.7877 28.6431L21.8871 20.4261L34.6884 12.0312C34.7463 12.2215 34.7836 12.4284 34.7836 12.656V28.6431H34.7877Z" fill="white"/>
<path d="M18.0184 16.7437C18.1095 16.7437 18.2005 16.7189 18.2791 16.6692C19.359 16.0197 20.5588 15.0019 21.4856 13.9468C22.2924 13.0283 23.2813 11.6422 23.3889 10.2686C23.4592 9.35009 23.1241 8.54742 22.4166 7.95163C21.5808 7.24826 20.7243 6.96691 19.8762 7.11586C19.0404 7.26481 18.4115 7.80682 18.0102 8.26607C17.5882 7.80268 16.9303 7.25653 16.078 7.11586C15.2712 6.98346 14.4768 7.23585 13.7114 7.86474C12.9252 8.51432 12.5529 9.31699 12.6067 10.2562C12.6687 11.4023 13.3804 12.6973 14.7168 14.1123C15.7553 15.2087 16.9634 16.1479 17.7495 16.661C17.8281 16.7189 17.9233 16.7437 18.0184 16.7437ZM13.6079 10.2065C13.5748 9.59833 13.8148 9.08943 14.3485 8.65086C14.7912 8.28676 15.2339 8.10058 15.6642 8.10058C15.7428 8.10058 15.8256 8.10885 15.9042 8.12126C16.8889 8.28262 17.584 9.36664 17.5882 9.37905C17.6792 9.528 17.8405 9.61488 18.0184 9.61488H18.0226C18.2005 9.61075 18.3619 9.51558 18.4529 9.3625C18.4612 9.35009 19.09 8.28676 20.0499 8.11712C20.5878 8.02196 21.1671 8.22884 21.7628 8.72947C22.2262 9.11839 22.4248 9.59833 22.3793 10.1941C22.3338 10.7816 22.0235 11.7746 20.8112 13.1855C20.021 14.104 18.9825 15.0184 18.0267 15.6432C16.2849 14.4392 13.7114 12.0312 13.6079 10.2065Z" fill="white"/>
</svg>
