<svg width="31" height="31" viewBox="0 0 31 31" fill="none" xmlns="http://www.w3.org/2000/svg">
<path d="M23.1502 30.3399C11.4533 30.3399 3.19666 18.8932 0.632088 10.9493C-0.368718 8.07199 -0.181067 5.56998 1.19504 3.56836C2.57115 1.56675 5.94887 0.128089 7.51264 0.00298784C7.66771 -0.0108886 7.82326 0.0237999 7.95774 0.102249C8.09223 0.180698 8.19899 0.299025 8.26324 0.440841L12.329 7.75924C12.4139 7.9186 12.4474 8.10031 12.425 8.27946C12.4026 8.45862 12.3254 8.62648 12.2039 8.76005L8.9513 12.0752C9.80591 14.3474 11.1187 16.4194 12.8081 18.1626C14.4976 19.9059 16.5275 21.283 18.7717 22.2084L22.1494 18.643C22.2928 18.5162 22.4714 18.4363 22.6615 18.4139C22.8516 18.3915 23.0439 18.4278 23.2128 18.5179L30.5937 22.8339C30.7086 22.8925 30.8047 22.9822 30.8711 23.0928C30.9375 23.2034 30.9714 23.3304 30.969 23.4594C31.2192 25.7112 29.9682 29.2766 26.6531 29.9646C25.501 30.2067 24.3275 30.3325 23.1502 30.3399ZM7.07478 1.7544C5.27218 2.0496 3.65616 3.03717 2.57115 4.50662C1.50779 6.07038 1.38269 8.00944 2.19585 10.4489C3.88471 15.4529 11.0155 28.6511 23.0251 28.6511C24.1176 28.668 25.2085 28.5631 26.2778 28.3383C28.467 27.9005 29.2802 25.5236 29.3427 24.0224L22.9626 20.2693L19.6474 23.7722C19.5347 23.8848 19.3952 23.9669 19.242 24.0106C19.0887 24.0544 18.9269 24.0584 18.7717 24.0224C16.0701 23.0323 13.6237 21.4515 11.6109 19.3954C9.59807 17.3393 8.06971 14.8598 7.13733 12.1378C7.09471 11.9829 7.09551 11.8193 7.13964 11.6648C7.18376 11.5104 7.26953 11.371 7.38753 11.2621L10.5151 8.00944L7.07478 1.7544Z" fill="white"/>
</svg>
