<svg width="33" height="32" viewBox="0 0 33 32" fill="none" xmlns="http://www.w3.org/2000/svg">
<path d="M21.3809 21.8072C19.9719 23.2506 16.3907 21.9213 13.3832 18.8405C10.3757 15.7596 9.07803 12.0911 10.4871 10.6477L11.9463 9.15289C12.2025 8.89044 12.6146 8.89044 12.8708 9.15289L14.3634 10.6819C14.6196 10.9443 14.6196 11.3665 14.3634 11.629L13.3498 12.6673C12.5645 13.4718 13.2551 15.5086 14.9259 17.2259C16.5968 18.9432 18.6296 19.6848 19.4149 18.8804L20.423 17.842C20.6792 17.5796 21.0913 17.5796 21.3475 17.842L22.8401 19.371C23.0963 19.6335 23.0963 20.0557 22.8401 20.3181L21.3809 21.8072Z" fill="white"/>
<path d="M20.869 21.0256C20.835 21.0533 20.6535 21.1975 20.7726 21.1143C20.8974 21.0312 20.6875 21.1642 20.6591 21.1808C20.6194 21.203 20.5343 21.264 20.4833 21.264C20.574 21.264 20.6421 21.2141 20.5457 21.2363C20.4946 21.2473 20.4492 21.2695 20.4039 21.2806C20.3358 21.2972 20.2677 21.3139 20.1996 21.3249C19.9614 21.3748 20.3301 21.3249 20.1315 21.336C19.95 21.3471 19.7685 21.3527 19.5813 21.3416C19.5019 21.336 19.4168 21.3249 19.3373 21.3194C19.5756 21.3416 19.2693 21.3028 19.2125 21.2917C19.0083 21.2529 18.8098 21.203 18.6112 21.142C18.4126 21.081 18.2141 21.0145 18.0155 20.9425C17.9702 20.9258 17.9191 20.9037 17.8737 20.887C18.0212 20.948 17.8624 20.8815 17.8227 20.8649C17.6979 20.8094 17.5787 20.754 17.4596 20.6986C16.5122 20.2385 15.6386 19.6509 14.8841 19.019C14.4189 18.631 13.9821 18.2208 13.5623 17.7884C13.1879 17.4004 12.7737 16.9292 12.4958 16.5634C12.1837 16.1476 11.8888 15.7208 11.6278 15.2718C11.5087 15.0722 11.3952 14.8616 11.2931 14.6565C11.2477 14.5623 11.1967 14.468 11.1569 14.3683C11.1626 14.3793 11.0548 14.1465 11.1059 14.2574C11.1456 14.3516 11.0662 14.1632 11.0605 14.1465C10.9017 13.7585 10.7769 13.3594 10.6974 12.9492C10.6861 12.8771 10.652 12.6665 10.6747 12.8605C10.6634 12.7718 10.652 12.6831 10.6464 12.5889C10.635 12.4115 10.652 12.2341 10.652 12.0568C10.652 11.9791 10.618 11.9736 10.6407 12.1177C10.635 12.0956 10.652 12.0401 10.6577 12.018C10.6747 11.9459 10.6918 11.8683 10.7144 11.7962C10.7258 11.763 10.7371 11.7352 10.7428 11.702C10.7882 11.5412 10.7371 11.7519 10.7201 11.7408C10.7088 11.7352 10.8222 11.5412 10.8336 11.5302C10.8506 11.5024 10.8733 11.4803 10.8846 11.4525C10.9357 11.3583 10.8449 11.4636 10.8393 11.508C10.8506 11.4636 10.9357 11.3971 10.9697 11.3694C11.0094 11.3306 11.0435 11.2973 11.0832 11.2585C11.4916 10.8594 11.9001 10.4603 12.3029 10.0668C12.3256 10.0446 12.439 9.96143 12.4447 9.92817C12.4447 9.92817 12.3653 9.96143 12.3312 9.97806C12.388 9.95589 12.4674 9.97252 12.3199 9.97252C12.2291 9.95589 12.2121 9.95035 12.2745 9.96697C12.3312 9.9836 12.3199 9.97806 12.2405 9.95589C12.2348 9.92817 12.1724 9.89491 12.2632 9.98915C12.3426 10.0723 12.4334 10.1554 12.5128 10.233C12.734 10.4492 12.9609 10.671 13.1822 10.8871C13.3354 11.0368 13.4942 11.253 13.6701 11.3639C13.6701 11.3639 13.6984 11.3971 13.7041 11.3971C13.6757 11.4027 13.6474 11.2863 13.6474 11.2807C13.6701 11.3251 13.6644 11.4248 13.653 11.2696C13.6474 11.2142 13.7098 11.131 13.6474 11.2585C13.6417 11.2696 13.6871 11.131 13.7041 11.1421C13.6984 11.1421 13.6644 11.1809 13.6587 11.1865C13.4431 11.3694 13.2503 11.5856 13.0517 11.7796C12.9042 11.9237 12.7454 12.0623 12.6092 12.2175C12.2915 12.5723 12.144 12.9935 12.1043 13.4592C12.0192 14.3627 12.439 15.3106 12.9099 16.0645C13.5509 17.101 14.4246 17.9824 15.4173 18.703C16.7164 19.6454 18.8098 20.5822 20.1656 19.2518C20.3812 19.0412 20.6024 18.825 20.818 18.6143C20.8917 18.5423 20.9711 18.4758 21.0392 18.3981C21.0392 18.3981 21.0846 18.3593 21.0846 18.3538C21.0903 18.376 20.9711 18.4092 20.9655 18.4092C21.0789 18.3593 20.9825 18.3815 20.9144 18.3981C20.9031 18.3981 20.8861 18.3926 20.8747 18.3926C20.9711 18.4203 20.9711 18.4203 20.8747 18.3926C20.8747 18.3871 20.8236 18.3593 20.8236 18.3593C20.8236 18.3593 20.852 18.3871 20.8577 18.3926C20.9087 18.4702 21.0052 18.5367 21.0676 18.5977C21.2832 18.8083 21.5044 19.0245 21.72 19.2352C21.9072 19.4181 22.083 19.6066 22.2759 19.7784C22.3497 19.8449 22.3383 19.8671 22.2929 19.7562C22.2532 19.662 22.2873 19.9225 22.2873 19.7119C22.2873 19.6564 22.344 19.5788 22.2816 19.7008C22.2986 19.662 22.3497 19.5955 22.327 19.5955C22.2929 19.5955 22.2135 19.7063 22.1908 19.7285C22.0887 19.8283 21.9866 19.9281 21.8902 20.0223C21.6576 20.2496 21.4307 20.4713 21.1981 20.6986C21.1016 20.8039 20.9825 20.9147 20.869 21.0256C20.5457 21.3416 20.5457 21.8848 20.869 22.2008C21.1924 22.5167 21.7483 22.5167 22.0717 22.2008C22.4461 21.8349 22.8205 21.4691 23.1949 21.1032C23.3311 20.9702 23.4786 20.8371 23.6091 20.693C24.1423 20.0944 24.1083 19.2296 23.558 18.6531C23.1949 18.2762 22.8092 17.9214 22.4348 17.5556C22.3043 17.4281 22.1795 17.2951 22.0433 17.1731C21.4533 16.641 20.5684 16.5966 19.9557 17.1232C19.5756 17.4503 19.2239 17.8217 18.8722 18.1764C18.8438 18.2041 18.7247 18.2817 18.8438 18.2097C18.9743 18.1265 18.8268 18.2152 18.8098 18.2208C18.6963 18.2651 18.8835 18.2263 18.8778 18.1986C18.8778 18.2041 18.6396 18.2762 18.6339 18.2651C18.6282 18.254 18.8665 18.254 18.6963 18.254C18.6396 18.254 18.5828 18.2596 18.5261 18.2596C18.4864 18.2596 18.4467 18.2596 18.407 18.254C18.39 18.254 18.1971 18.2263 18.3332 18.2485C18.4807 18.2707 18.2651 18.2319 18.2538 18.2319C18.2084 18.2208 18.163 18.2152 18.1233 18.2041C18.0099 18.1764 17.8964 18.1432 17.7829 18.1044C17.7376 18.0877 17.6865 18.0711 17.6411 18.0545C17.4085 17.9713 17.7829 18.1265 17.556 18.0212C17.3291 17.9159 17.1079 17.7995 16.8923 17.672C16.6597 17.5334 16.3817 17.3449 16.2342 17.2341C15.7407 16.8516 15.3039 16.4137 14.8954 15.9425C14.7876 15.8206 14.6174 15.5822 14.4813 15.3827C14.3281 15.1498 14.192 14.9115 14.0728 14.662C14.0501 14.6177 14.0275 14.5678 14.0104 14.5235C14.0728 14.6676 14.0104 14.5179 13.9991 14.4791C13.9651 14.3793 13.9253 14.2796 13.897 14.1798C13.8686 14.0856 13.8516 13.9858 13.8289 13.8915C13.8176 13.8361 13.8119 13.692 13.8289 13.8971C13.8232 13.8361 13.8176 13.7807 13.8176 13.7197C13.8176 13.6366 13.8289 13.5534 13.8232 13.4703C13.8176 13.3649 13.7552 13.6643 13.8232 13.5091C13.8346 13.4813 13.8402 13.437 13.8516 13.4148C13.9026 13.1986 13.7835 13.5257 13.8743 13.3705C13.9651 13.2153 13.7381 13.4869 13.9026 13.3317C14.0842 13.1598 14.26 12.9825 14.4359 12.8106C14.6004 12.6499 14.7763 12.4947 14.9351 12.3228C15.4854 11.7463 15.5251 10.8816 14.9862 10.2829C14.6345 9.88937 14.226 9.53461 13.8459 9.16321C13.7041 9.02464 13.5679 8.88051 13.4204 8.74748C12.8985 8.27076 12.11 8.1599 11.503 8.56455C11.0208 8.88606 10.6294 9.37386 10.2209 9.77296C9.78409 10.1998 9.38698 10.5989 9.16006 11.1754C8.85939 11.9459 8.93314 12.8328 9.12035 13.6255C9.35294 14.6122 9.81812 15.5545 10.3571 16.4137C11.6618 18.4979 13.5282 20.3216 15.6499 21.6132C16.5236 22.1453 17.4823 22.5999 18.4807 22.8438C19.292 23.0433 20.211 23.132 21.0165 22.8549C21.4193 22.7163 21.7767 22.5112 22.0887 22.2174C22.4177 21.907 22.4121 21.3582 22.0887 21.0422C21.7427 20.7041 21.1981 20.7152 20.869 21.0256Z" fill="white"/>
<path d="M6.53107 27.134C9.11741 29.5031 12.3865 30.9589 15.8902 31.2817C18.911 31.5632 21.9939 30.9177 24.663 29.5031C29.8633 26.7564 33.1531 21.1392 32.9945 15.2817C32.8497 9.47233 29.3529 4.02 24.0561 1.53417C21.387 0.277527 18.38 -0.251226 15.4419 0.112721C12.4555 0.476667 9.68986 1.63718 7.34491 3.51185C2.455 7.40539 0.392827 14.1144 2.15844 20.0817C2.42052 20.9676 2.77226 21.8328 3.17918 22.6637C3.17918 22.3203 3.17918 21.9701 3.17918 21.6268C2.28948 23.3298 1.39978 25.0259 0.510075 26.7289C0.379033 26.9761 0.254889 27.2165 0.123848 27.4637C-0.289967 28.2602 0.392827 29.201 1.28943 28.9744C3.11021 28.5143 4.93789 28.0542 6.75867 27.5941C7.01386 27.5323 7.27594 27.4637 7.53113 27.4019C8.07598 27.2645 8.40014 26.6602 8.2553 26.1315C8.10357 25.5821 7.52423 25.2731 6.97937 25.4105C5.15859 25.8705 3.33091 26.3306 1.51013 26.7907C1.25494 26.8525 0.992858 26.9212 0.737673 26.983C1.1239 27.4843 1.51702 27.9924 1.90325 28.4937C2.71019 26.983 3.50333 25.4654 4.29648 23.9409C4.4758 23.6045 4.64822 23.268 4.82754 22.9315C4.86892 22.856 4.9103 22.7736 4.95168 22.698C4.97927 22.6431 4.99306 22.6156 5.02065 22.5469C5.20687 22.0869 5.00686 21.7229 4.81374 21.3109C4.0137 19.601 3.59299 17.6028 3.59299 15.6732C3.59299 15.2749 3.60679 14.8697 3.64127 14.4714C3.65506 14.2792 3.67576 14.0938 3.69645 13.9015C3.70334 13.8534 3.71024 13.8054 3.71714 13.7573C3.71714 13.771 3.69645 13.9221 3.71024 13.7985C3.72403 13.6886 3.74472 13.5788 3.75852 13.4757C3.88956 12.6998 4.08957 11.9307 4.34475 11.1822C4.40683 11.0105 4.4689 10.8389 4.53097 10.6672C4.56546 10.5848 4.59994 10.4955 4.63443 10.4131C4.67581 10.3032 4.62753 10.4337 4.62063 10.4474C4.64132 10.3925 4.66891 10.3376 4.6965 10.2826C4.84823 9.93928 5.02065 9.59594 5.19997 9.25946C5.55861 8.59337 5.97242 7.96161 6.42762 7.36419C6.49659 7.26805 6.41383 7.37792 6.40693 7.39166C6.43452 7.35732 6.46211 7.32299 6.48969 7.28865C6.54487 7.21998 6.60004 7.15131 6.66212 7.07578C6.78626 6.92471 6.9173 6.7805 7.04834 6.62943C7.29663 6.34788 7.55871 6.08007 7.83459 5.81913C8.11736 5.55132 8.41393 5.29038 8.71739 5.04317C8.78636 4.98823 8.85533 4.9333 8.9312 4.8715C9.02086 4.79596 8.91051 4.88523 8.90361 4.8921C8.9381 4.86463 8.97258 4.83716 9.01396 4.80969C9.17259 4.69296 9.33122 4.57622 9.48985 4.46635C10.1175 4.0406 10.7727 3.66292 11.4555 3.33331C11.621 3.25777 11.7865 3.18223 11.952 3.1067C12.1314 3.02429 11.8555 3.14103 12.0417 3.07236C12.1383 3.03116 12.2417 2.99683 12.3383 2.95563C12.6969 2.81829 13.0624 2.69468 13.4349 2.59168C13.8073 2.48181 14.1866 2.39254 14.566 2.31014C14.766 2.26893 14.966 2.2346 15.166 2.20026C15.2626 2.18653 15.3522 2.1728 15.4488 2.15906C15.2557 2.18653 15.5315 2.1522 15.6005 2.13846C16.4005 2.04919 17.2075 2.02172 18.0075 2.06293C18.4075 2.08353 18.8007 2.11786 19.2007 2.16593C19.0214 2.14533 19.2352 2.1728 19.2973 2.17966C19.3938 2.1934 19.4835 2.20713 19.5731 2.22773C19.7731 2.26207 19.9731 2.30327 20.1732 2.34447C20.9249 2.50928 21.6698 2.73588 22.3871 3.01743C22.4284 3.03116 22.6491 3.12043 22.5595 3.0861C22.4698 3.05176 22.6905 3.14103 22.7319 3.16163C22.925 3.2509 23.1181 3.34017 23.3113 3.43631C23.6492 3.60798 23.9803 3.78652 24.3113 3.9788C24.6355 4.17107 24.9527 4.37708 25.2631 4.59682C25.3389 4.65175 25.4079 4.69982 25.4838 4.75476C25.5183 4.78223 25.7045 4.91956 25.6286 4.86463C25.5527 4.80969 25.739 4.9539 25.7734 4.98137C25.8562 5.05004 25.939 5.11184 26.0148 5.18051C26.5873 5.66119 27.1321 6.18994 27.6218 6.75303C27.7391 6.89037 27.8563 7.02771 27.9736 7.16505C28.0287 7.23372 28.0839 7.30239 28.146 7.37792C28.0287 7.23372 28.1943 7.44659 28.2287 7.49466C28.4563 7.7968 28.6633 8.10581 28.8633 8.42856C29.0702 8.75817 29.2702 9.10152 29.4495 9.45173C29.5323 9.61654 29.615 9.77448 29.6909 9.93928C29.7323 10.0217 29.7668 10.1041 29.8081 10.1865C29.8288 10.2277 29.8426 10.2689 29.8633 10.3101C29.8702 10.3307 29.9461 10.5024 29.8978 10.3994C29.8633 10.3101 29.953 10.5367 29.9668 10.571C30.0013 10.6534 30.0357 10.7427 30.0633 10.8251C30.1323 11.0105 30.2013 11.2028 30.2633 11.3882C30.3806 11.7522 30.4909 12.123 30.5806 12.5006C30.6702 12.8783 30.7461 13.2629 30.8082 13.6474C30.8151 13.7092 30.8496 13.929 30.822 13.7436C30.8358 13.8397 30.8427 13.929 30.8565 14.0251C30.8772 14.2311 30.8978 14.4371 30.9116 14.6431C30.9668 15.4603 30.953 16.2775 30.8772 17.0946C30.8703 17.1908 30.8565 17.28 30.8496 17.3762C30.8427 17.4448 30.8082 17.6577 30.8358 17.4792C30.8082 17.6783 30.7737 17.8843 30.7392 18.0835C30.6702 18.468 30.5806 18.8457 30.4771 19.2165C30.3737 19.5873 30.2633 19.9513 30.1323 20.3152C30.0702 20.4869 30.0012 20.6585 29.9392 20.8302C29.9254 20.8714 29.9047 20.9126 29.884 20.9607C29.8909 20.947 29.9461 20.8165 29.8978 20.9264C29.8564 21.0225 29.815 21.1186 29.7668 21.2148C29.4495 21.9015 29.084 22.5675 28.6632 23.1924C28.5667 23.3435 28.4632 23.4946 28.3529 23.6388C28.2977 23.7143 28.2494 23.783 28.1943 23.8585C28.1667 23.8929 28.1391 23.9272 28.1115 23.9684C28.0149 24.092 28.2081 23.8517 28.1046 23.9753C27.8632 24.2843 27.608 24.5796 27.339 24.868C26.8287 25.4173 26.2769 25.9255 25.6838 26.3993C25.6493 26.4268 25.6148 26.4542 25.5803 26.4817C25.5941 26.4748 25.7045 26.3856 25.6079 26.4611C25.5321 26.516 25.4631 26.571 25.3872 26.619C25.2286 26.7358 25.07 26.8456 24.9044 26.9555C24.5872 27.1684 24.2699 27.3607 23.9389 27.5461C23.6078 27.7315 23.2699 27.9031 22.925 28.0611C22.8423 28.1023 22.7595 28.1366 22.6767 28.171C22.6216 28.1984 22.4216 28.274 22.5871 28.2122C22.4009 28.2877 22.2146 28.3564 22.0284 28.425C21.2836 28.6928 20.518 28.9057 19.7456 29.0499C19.5593 29.0843 19.3731 29.1117 19.1869 29.1461C18.9869 29.1804 19.2904 29.1392 19.0834 29.1598C18.9731 29.1735 18.8627 29.1873 18.7524 29.1941C18.3524 29.2353 17.9524 29.2559 17.5523 29.2628C17.0902 29.2697 16.6281 29.2628 16.173 29.2285C15.9454 29.2147 15.7178 29.1873 15.4971 29.1667C15.3729 29.1529 15.4695 29.1667 15.4902 29.1667C15.435 29.1598 15.3798 29.1529 15.3246 29.1392C15.1936 29.1186 15.0694 29.098 14.9384 29.0774C13.0693 28.7478 11.5382 28.1572 9.95884 27.1684C9.5933 26.9418 9.24156 26.6946 8.89671 26.4336C8.80016 26.365 8.87602 26.413 8.89671 26.4336C8.85533 26.3993 8.81395 26.365 8.77257 26.3306C8.68981 26.262 8.60704 26.1933 8.52428 26.1246C8.34496 25.9735 8.17254 25.8225 8.00012 25.6645C7.5863 25.2868 6.94489 25.2594 6.53797 25.6645C6.15174 26.0628 6.11726 26.7564 6.53107 27.134Z" fill="white"/>
</svg>
