<?xml version="1.0" encoding="UTF-8"?>
<svg data-bbox="337.402 210.001 657.597 464.425" viewBox="0 0 1280 800" xmlns="http://www.w3.org/2000/svg" data-type="color">
    <g>
        <path d="M988.261 336.21c-7.19-4.977-18.303-5.009-26.625-5.252-13.65-.4-27.388 1.022-40.907 2.757-10.775 1.388-22.251 2.848-33.541 5.127 43.507-33.37 111.518-87.61 66.675-119.421-24.34-17.261-50.072 28.865-59.033 44.103-6.227 10.589-11.908 21.498-17.432 32.48 2.331-25.283.917-53.153-15.536-71.278-28.822-31.753-84.398-3.687-116.969 5.782-67.749 19.684-150.012 19.802-218.18 0-32.568-9.469-88.143-37.535-116.969-5.782-8.716 9.607-13.201 21.95-15.159 35.191-9.024-18.4-21.387-29.958-40.6-21.007-47.814 22.271 20.022 91.65 49.597 111.721-53.15 29.009-53.005 93.471-48.759 149.531 4.008 52.904 16.322 122.434-14.046 169.582a933.201 933.201 0 0012.344 4.682c24.968-41.726 21.472-97.052 17.451-145.654-4.525-54.757-17.785-134.286 37.6-165.626 14.891 43.317 42.911 87.073 86.69 99.174 25.673 7.092 52.004.085 76.124-8.984 21.03-7.917 43.291-17.582 66.541-17.622 22.415-.039 42.639 9.927 63.093 17.622 24.117 9.069 50.451 16.076 76.124 8.984 42.656-11.794 70.329-53.644 85.495-95.848 2.41.858 4.846 1.722 7.315 2.587 23.253 14.485 42.315 34.83 41.565 63.361-.586 22.428-16.132 42.407-30.891 57.822-18.663 19.508-41.006 34.477-65.208 46.152-42.469 20.49-89.355 33.685-119.062 72.896-10.392 13.712-16.849 29.376-20.876 45.91 4.587 1.224 9.167 2.469 13.758 3.68 5.942-23.351 16.921-44.823 37.198-62.045 39.441-33.514 94.748-40.482 135.334-72.516 32.922-25.977 69.389-61.41 61.983-107.373-2.348-14.564-9.489-26.946-19.285-37.483 20.732 4.754 41.683 6.011 60.29-2.03 12.042-5.214 44.626-26.856 23.901-41.223zm-624.283-86.844c15.46-4.047 26.39 37.09 29.376 46.212.412 1.27.812 2.586 1.202 3.922.812 7.661 1.928 15.022 3.022 21.747.439 2.704.963 5.481 1.522 8.284-27.081-24.078-68.178-71.501-35.122-80.165zm87.924 82.738c30.581-21.203 62.536-31.432 98.454-17.988 23.875 8.945 37.188 27.235 42.531 51.398-44.306 18.067-117.136 21.779-140.985-33.41zm226.817 33.41c5.34-24.163 18.653-42.453 42.528-51.398 35.917-13.443 67.873-3.215 98.46 17.988-23.855 55.189-96.678 51.477-140.988 33.41zm215.999-73.996c7.563-14.531 15.605-28.891 25.152-42.23 4.466-6.227 14.655-21.072 24.042-19.632 12.324 1.88 11.05 18.054 7.364 26.056-6.869 14.924-19.799 27.123-31.569 38.196-13.175 12.396-27.863 23.129-42.171 34.241 5.939-12.33 11.191-25.112 17.182-36.631zm86.287 56.983c-5.029 9.194-18.682 16.004-28.034 18.709-24.049 6.941-51.489-.891-76.615-9.757-.819-.498-1.641-.976-2.462-1.46 11.947-3.549 24.766-5.409 36.477-7.347 20.283-3.346 42.888-6.712 63.391-3.327 3.265.537 8.438 1.002 7.243 3.182z" fill="#EDCCBD" clip-rule="evenodd" fill-rule="evenodd" data-color="1"/>
    </g>
</svg>
