<?xml version="1.0" encoding="UTF-8"?>
<svg data-bbox="2 16.88 295.98 76.24" viewBox="0 0 300 110" xmlns="http://www.w3.org/2000/svg" data-type="ugc">
    <g style="isolation:isolate">
        <g style="mix-blend-mode:multiply">
            <path d="M264.12 64.52c0 6 4.53 9.06 10.48 9.06 10.57 0 14.76-8.55 14.76-16.61v-2.18l-15 .92c-6.22.42-10.24 3.69-10.24 8.81z" fill="none"/>
            <path d="M69.47 37.43a12.28 12.28 0 00-9.23 3.69c-3.77 3.94-4.7 8.81-4.7 14.26s.92 10.32 4.7 14.26a12.28 12.28 0 009.23 3.69 12.28 12.28 0 009.23-3.69c3.77-3.94 4.7-8.81 4.7-14.26s-.92-10.32-4.7-14.26a12.28 12.28 0 00-9.23-3.69z" fill="none"/>
            <path d="M157.95 37.43a12 12 0 00-8.3 2.94c-3.86 3.44-5.54 9.06-5.54 15 0 5.37 1.43 10.73 4.7 14.26a11.84 11.84 0 009 3.69 12.17 12.17 0 008.81-3.27c3.86-3.61 5.28-8.47 5.28-14.68 0-5.79-1.59-10.9-5.37-14.59a11.88 11.88 0 00-8.58-3.35z" fill="none"/>
            <path d="M30.89 45.4c6.79-1.85 9.48-7.46 9.48-13.92a14 14 0 00-6.12-11.41c-3.77-2.52-8.47-3.19-12.91-3.19H2l16.56 13.8A2.76 2.76 0 1115 34.91l-12-10v9.34l15.56 12.94A2.76 2.76 0 1115 51.43l-12-10v9.34l15.56 12.94A2.76 2.76 0 1115 67.94l-12-10v18.4h18.3c5.28 0 10.65-.67 14.93-4.11a15.44 15.44 0 005.45-12.33c.03-6.79-3.41-12.74-10.79-14.5z" fill="#56a099"/>
            <path d="M69.47 33.32a17 17 0 00-12.24 5c-4.36 4.36-6 9.9-6 17s1.59 12.66 6 17a17.41 17.41 0 0024.49 0c4.36-4.36 6-9.9 6-17s-1.59-12.66-6-17a17 17 0 00-12.25-5zm9.23 36.31a12.28 12.28 0 01-9.23 3.69 12.28 12.28 0 01-9.23-3.69c-3.77-3.94-4.7-8.81-4.7-14.26s.92-10.32 4.7-14.26a12.28 12.28 0 019.23-3.69 12.28 12.28 0 019.23 3.69c3.77 3.94 4.7 8.81 4.7 14.26s-.93 10.32-4.7 14.26z" fill="#3f3e3e"/>
            <path d="M119 53.11l-8-1.09c-6.37-.84-8.14-3.52-8.14-7a7.11 7.11 0 013.27-5.79c1.84-1.34 4.28-1.93 7.55-1.93 4.36 0 7.63 1.43 9.56 3.69a10.14 10.14 0 012.1 5h4.19a12.79 12.79 0 00-3.19-7.72c-2.85-3.35-7.63-4.95-12.66-4.95-4.36 0-8.47 1.17-11.49 3.94a10.87 10.87 0 00-3.61 8.14A9.82 9.82 0 00101 52c2.35 2.68 6 3.77 9.48 4.19l8.13 1.09c5 .67 7.72 3.86 7.72 7.63a6.79 6.79 0 01-2.26 5.37c-2.1 2.1-5.54 3.1-9.9 3.1-4 0-7.46-1-9.9-3.35a10.46 10.46 0 01-3.1-6.46h-4.28a12.61 12.61 0 003.52 8.47c3.19 3.61 8.05 5.37 13.75 5.37 5.54 0 10.57-1.68 13.59-5a11.22 11.22 0 002.85-7.72c.01-5.12-3.68-10.49-11.6-11.58z" fill="#3f3e3e"/>
            <path d="M171.78 41.79c-2.26-5.2-8.3-8.47-13.92-8.47a16.23 16.23 0 00-11.15 3.94c-4.7 4.11-6.88 10.82-6.88 18 0 6.88 2.1 13.59 6.54 17.78a15.82 15.82 0 0011.4 4.36c6 0 11.74-3.35 14-8.13v23.85H176V34.41h-3.69zm-5.2 28.26a12.17 12.17 0 01-8.81 3.27 11.84 11.84 0 01-9-3.69c-3.27-3.52-4.7-8.89-4.7-14.26 0-6 1.68-11.57 5.54-15a12 12 0 018.3-2.94 11.88 11.88 0 018.55 3.35c3.77 3.69 5.37 8.81 5.37 14.59.04 6.21-1.39 11.08-5.24 14.68z" fill="#3f3e3e"/>
            <path d="M220.68 55.29c0 9.06-3.61 17.95-13.92 17.95-7.63 0-10.82-4.19-10.82-11.49V34.33h-4.19V62c0 9.39 5.12 15.35 14.76 15.35 5.87 0 11.83-3.36 14.17-8.72l.5 7.63h3.69V34.33h-4.19z" fill="#3f3e3e"/>
            <path fill="#3f3e3e" d="M247.01 16.88v5.87h-5.87v-5.87h5.87z"/>
            <path fill="#3f3e3e" d="M246.34 34.41v41.93h-4.44V34.41h4.44z"/>
            <path d="M296.83 72.74c-2.85 0-3.27-1.68-3.27-4.53V49.09a21.78 21.78 0 00-1.09-8.09c-2.26-5.79-8.47-7.72-14.17-7.72-9.06 0-15.68 4.7-16.27 13.17h4.19c.42-6.21 5.45-9.23 12.08-9.23 6.37 0 11.07 2.6 11.07 9.56v4.11L273.93 52c-8.3.59-14.09 5-14.09 12.5 0 8.05 6.29 12.92 14.42 12.92 6.46 0 12.83-3.1 15.1-9.06 0 4.44 1.43 8.22 6.62 8.22a8.25 8.25 0 002-.25v-3.68a5.12 5.12 0 01-1.15.09zM289.36 57c0 8.05-4.19 16.61-14.76 16.61-6 0-10.48-3-10.48-9.06 0-5.12 4-8.39 10.23-8.81l15-.92z" fill="#3f3e3e"/>
        </g>
    </g>
</svg>
